<svg width="308" height="296" viewBox="0 0 308 296" fill="none" xmlns="http://www.w3.org/2000/svg">
<path d="M66.6503 152.854V148.218C75.9037 148.218 78.8204 142.403 75.4142 130.772L68.8396 107.804H33.5937L27.0191 130.772C25.0678 137.402 25.0406 141.924 26.9307 144.353C28.814 146.782 31.7716 148.075 35.7898 148.218V152.854H3.05176e-05V148.218C2.1893 148.218 4.20179 147.925 6.02391 147.339C7.84604 146.753 9.51858 145.682 11.0483 144.139C12.5713 142.596 13.9991 140.495 15.3385 137.845C16.6779 135.194 17.9561 131.808 19.1731 127.686L42.1808 48.8368C43.8806 42.6501 43.8262 38.3136 41.9972 35.806C40.1751 33.3056 37.3128 32.0554 33.4169 32.0554V27.4189H81.8052V32.0554C77.9094 32.0554 75.047 33.3056 73.2249 35.806C71.4028 38.3136 71.3348 42.6501 73.0413 48.8368L95.6819 127.464C98.1159 135.859 100.89 141.417 103.99 144.139C107.091 146.868 110.837 148.225 115.222 148.225V152.862H66.6503V152.854ZM51.3118 47.0579L36.5241 98.0808H65.9228L51.3118 47.0579Z" fill="#957B4D"/>
<path d="M167.255 26.0258C167.057 24.8399 166.738 23.4111 166.296 21.7465C165.854 20.082 165.12 18.4817 164.086 16.9314C163.053 15.3883 161.652 14.081 159.884 13.0093C158.117 11.9377 155.805 11.4019 152.956 11.4019H140.133V84.4857C140.133 91.144 141.215 95.6019 143.377 97.8522C145.539 100.11 148.435 101.239 152.072 101.239V104.982H111.401V101.239C115.032 101.239 117.935 100.11 120.097 97.8522C122.259 95.5947 123.34 91.2011 123.34 84.6643V11.4091H110.517C107.668 11.4091 105.357 11.9449 103.589 13.0165C101.821 14.0881 100.421 15.3955 99.3873 16.9386C98.3538 18.4817 97.6195 20.0891 97.1776 21.7537C96.7357 23.4182 96.4161 24.8471 96.2189 26.033H93.275L95.9334 0H98.7346C100.407 1.78602 102.052 2.85048 103.671 3.20768C105.289 3.56489 107.186 3.74349 109.341 3.74349H154.139C156.301 3.74349 158.192 3.56489 159.81 3.20768C161.428 2.85048 163.073 1.77887 164.746 0H167.547L170.198 26.0258H167.248H167.255Z" fill="#1D1D1B"/>
<path d="M216.296 133.251H154.405V129.508C158.035 129.508 160.938 128.379 163.1 126.121C165.263 123.864 166.344 119.47 166.344 112.933V52.5088C166.344 45.8577 165.283 41.3998 163.175 39.1423C161.061 36.8848 158.137 35.756 154.405 35.756V32.0125H216.445L218.063 50.5514H214.528C214.235 49.1297 213.841 47.7866 213.352 46.5435C212.862 45.2933 212.175 44.2003 211.292 43.243C210.408 42.2928 209.252 41.5213 207.831 40.9283C206.403 40.3353 204.663 40.0353 202.596 40.0353H183.144V78.356H193.9C201.27 78.356 204.955 74.8483 204.955 67.84H208.198V96.3591H204.955C204.955 93.0371 204.044 90.451 202.229 88.6078C200.406 86.7646 197.632 85.843 193.9 85.843H183.144V116.327C183.144 122.149 185.204 125.064 189.331 125.064H202.446C205.098 125.064 207.287 124.621 209.007 123.728C210.727 122.835 212.128 121.706 213.209 120.342C214.29 118.977 215.126 117.52 215.711 115.977C216.302 114.434 216.84 113.005 217.336 111.697H221.463L216.302 133.265L216.296 133.251Z" fill="#1D1D1B"/>
<path d="M104.554 268.588H40.5966V264.845C44.2273 264.845 47.1304 263.716 49.2925 261.458C51.4546 259.201 52.5356 254.807 52.5356 248.27V187.846C52.5356 181.195 51.475 176.737 49.3673 174.479C47.2528 172.222 44.3293 171.093 40.5966 171.093V167.35H81.4176V171.093C79.5479 171.093 77.8821 171.336 76.4068 171.808C74.9314 172.286 73.6804 173.144 72.6469 174.394C71.6135 175.644 70.8044 177.337 70.2129 179.473C69.6214 181.609 69.3291 184.345 69.3291 187.675V251.664C69.3291 257.486 71.3891 260.401 75.5161 260.401H91.4325C94.0841 260.401 96.3209 259.751 98.1363 258.444C99.9516 257.136 101.454 255.65 102.63 253.986C103.807 252.321 104.69 250.664 105.282 248.992C105.873 247.327 106.315 246.084 106.608 245.249H110.143L104.541 268.602L104.554 268.588Z" fill="#1D1D1B"/>
<path d="M111.333 295.986V292.242C114.964 292.242 117.867 291.113 120.029 288.856C122.191 286.598 123.272 282.205 123.272 275.668V127.064C123.272 120.413 122.211 115.955 120.104 113.698C117.989 111.44 115.066 110.312 111.34 110.312V106.568H152.161V110.312C150.291 110.312 148.625 110.554 147.15 111.026C145.675 111.505 144.424 112.362 143.39 113.612C142.357 114.862 141.548 116.555 140.956 118.692C140.371 120.828 140.072 123.564 140.072 126.893V275.497C140.072 278.826 140.371 281.583 140.956 283.784C141.548 285.984 142.357 287.706 143.39 288.956C144.424 290.206 145.675 291.071 147.15 291.542C148.619 292.021 150.291 292.257 152.161 292.257V296H111.34L111.333 295.986Z" fill="#1D1D1B"/>
<path d="M216.296 268.588H154.398V264.845C158.028 264.845 160.932 263.716 163.094 261.458C165.256 259.201 166.337 254.807 166.337 248.27V187.846C166.337 181.195 165.283 176.737 163.168 174.479C161.054 172.222 158.13 171.093 154.398 171.093V167.35H216.438L218.057 185.889H214.521C214.229 184.467 213.834 183.124 213.345 181.881C212.849 180.63 212.169 179.537 211.278 178.58C210.394 177.63 209.238 176.858 207.817 176.265C206.389 175.673 204.649 175.372 202.582 175.372H183.13V213.693H193.893C201.263 213.693 204.941 210.185 204.941 203.177H208.184V231.696H204.941C204.941 228.374 204.03 225.788 202.215 223.945C200.393 222.102 197.619 221.18 193.893 221.18H183.13V251.664C183.13 257.486 185.197 260.401 189.317 260.401H202.432C205.084 260.401 207.267 259.958 208.993 259.065C210.714 258.172 212.107 257.043 213.195 255.679C214.276 254.314 215.113 252.857 215.697 251.314C216.289 249.771 216.826 248.342 217.315 247.035H221.442L216.282 268.602L216.296 268.588Z" fill="#1D1D1B"/>
<path d="M305.722 260.208C304.784 261.816 303.71 263.302 302.479 264.666C301.249 266.031 299.848 267.195 298.277 268.138C296.707 269.088 295.034 269.567 293.267 269.567C288.942 269.567 285.754 268.588 283.687 266.624C281.627 264.666 279.757 262.316 278.085 259.58L255.24 223.216H252.146V247.106C252.146 253.764 253.003 258.222 254.723 260.473C256.443 262.73 259.115 263.859 262.753 263.859V267.602H223.7V263.859C227.33 263.859 230.233 262.73 232.395 260.473C234.558 258.215 235.639 253.821 235.639 247.285V186.86C235.639 180.209 234.585 175.751 232.47 173.494C230.356 171.236 227.432 170.107 223.7 170.107V166.364H260.394C264.908 166.364 269.062 166.928 272.849 168.057C276.63 169.186 279.873 170.907 282.579 173.229C285.278 175.544 287.392 178.43 288.915 181.874C290.438 185.324 291.2 189.303 291.2 193.818C291.2 197.862 290.391 201.455 288.766 204.606C287.148 207.756 285.305 210.428 283.238 212.629C281.171 214.829 279.159 216.522 277.194 217.708C275.229 218.901 273.903 219.666 273.216 220.023L295.028 253.714C296.401 255.85 297.972 256.922 299.746 256.922C300.827 256.922 301.833 256.415 302.765 255.407C303.696 254.4 304.512 253.478 305.199 252.643L308 255.85C307.409 257.158 306.647 258.615 305.716 260.215L305.722 260.208ZM273.448 185.61C272.904 183.117 271.999 180.916 270.721 179.016C269.443 177.116 267.798 175.63 265.785 174.558C263.773 173.486 261.339 172.951 258.49 172.951H252.153V216.622L259.523 218.044C261.583 218.044 263.501 217.394 265.275 216.086C267.043 214.779 268.593 213.029 269.919 210.828C271.245 208.628 272.299 206.049 273.087 203.077C273.876 200.105 274.264 196.955 274.264 193.633C274.264 190.782 273.992 188.11 273.454 185.61H273.448Z" fill="#1D1D1B"/>
</svg>
