<svg width="358" height="183" viewBox="0 0 358 183" fill="none" xmlns="http://www.w3.org/2000/svg">
<path d="M67.928 83.598C66.464 86.9592 64.4346 89.8184 61.8344 92.1702C59.2342 94.5221 56.1213 96.319 52.4852 97.5504C48.8492 98.787 44.859 99.4001 40.5147 99.4001H0V95.8697C3.49338 95.8697 6.27857 94.8074 8.36086 92.6776C10.4379 90.5477 11.479 86.4043 11.479 80.2367V23.2487C11.479 16.9754 10.4643 12.7738 8.43484 10.6387C6.40541 8.50883 3.59379 7.44655 0.00528499 7.44655V3.91618H36.8364C41.651 3.91618 45.879 4.61908 49.5151 6.0196C53.1512 7.42541 56.1953 9.32801 58.6528 11.738C61.1051 14.1479 62.9495 16.949 64.1756 20.1411C65.4018 23.3332 66.0148 26.7262 66.0148 30.3147C66.0148 33.454 65.592 36.1705 64.7411 38.4694C63.8903 40.7684 62.902 42.671 61.7657 44.1878C60.6294 45.6993 59.5196 46.9043 58.4361 47.8027C57.3474 48.7012 56.5705 49.3142 56.1002 49.6525C57.4214 50.3237 58.8854 51.2221 60.492 52.3425C62.0986 53.463 63.6101 54.9216 65.0265 56.7132C66.4429 58.5101 67.6479 60.6611 68.6415 63.1873C69.635 65.7136 70.1318 68.7102 70.1318 72.1824C70.1318 76.4421 69.3972 80.2526 67.9333 83.6138L67.928 83.598ZM49.5151 21.7372C48.7118 19.2744 47.6019 17.1974 46.1855 15.5167C44.7692 13.8361 43.1414 12.5519 41.2969 11.6534C39.4577 10.755 37.4917 10.3057 35.42 10.3057H27.6299V46.9519H39.8118C40.3773 46.9519 41.1067 46.9783 42.0104 47.0364C42.9088 47.0946 43.6857 47.1791 44.3464 47.2901C44.8167 46.8409 45.4086 46.1433 46.1168 45.1867C46.825 44.2354 47.5068 43.0304 48.1727 41.5717C48.8333 40.1184 49.4252 38.4377 49.9432 36.5299C50.4611 34.6273 50.7201 32.5555 50.7201 30.3094C50.7201 27.0592 50.3184 24.2 49.5151 21.7372ZM52.1311 64.7728C51.1851 62.31 49.885 60.1485 48.2361 58.2987C46.5819 56.449 44.6952 54.9956 42.5706 53.928C40.446 52.8658 38.1999 52.332 35.8428 52.332H27.6246V85.9551C27.6246 88.1959 28.169 89.9611 29.2524 91.2506C30.3358 92.5402 31.7786 93.185 33.5755 93.185H37.5446C39.8118 93.185 41.91 92.6247 43.8496 91.5043C45.7839 90.3839 47.4856 88.8724 48.9496 86.9645C50.4135 85.0619 51.5445 82.8739 52.3478 80.4058C53.1512 77.943 53.5528 75.4221 53.5528 72.843C53.5528 69.931 53.0772 67.2409 52.1364 64.7728H52.1311Z" fill="#1D1D1B"/>
<path d="M170.779 70.2692C168.56 76.4315 165.468 81.8117 161.499 86.4096C157.535 91.0075 152.763 94.6225 147.192 97.2544C141.617 99.8863 135.481 101.202 128.774 101.202C122.067 101.202 115.953 99.881 110.43 97.2544C104.907 94.6225 100.161 91.0075 96.1921 86.4096C92.2231 81.8169 89.1314 76.4368 86.9117 70.2692C84.692 64.1069 83.5822 57.5535 83.5822 50.5985C83.5822 43.6435 84.692 37.0954 86.9117 30.9331C89.1314 24.7708 92.2231 19.3906 96.1921 14.7927C100.161 10.2 104.907 6.5851 110.43 3.94789C115.953 1.31596 122.067 0 128.774 0C135.481 0 141.617 1.32125 147.192 3.94789C152.763 6.5851 157.535 10.2 161.499 14.7927C165.468 19.3906 168.56 24.7708 170.779 30.9331C172.999 37.1006 174.109 43.654 174.109 50.5985C174.109 57.543 172.999 64.1069 170.779 70.2692ZM152.076 28.8349C150.236 23.6239 147.922 19.1687 145.136 15.4692C142.351 11.7697 139.138 9.02676 135.502 7.22987C131.866 5.43825 127.876 4.87805 123.531 5.54924C119.187 6.22043 115.456 8.04376 112.338 11.0139C109.22 13.9841 106.741 17.6836 104.902 22.1071C103.063 26.5359 101.858 31.5778 101.287 37.238C100.721 42.8983 100.811 48.865 101.567 55.1436C102.323 61.3059 103.623 67.0243 105.462 72.2881C107.301 77.5572 109.616 82.0389 112.406 85.7384C115.192 89.4379 118.426 92.1861 122.11 93.9777C125.793 95.7746 129.805 96.3295 134.149 95.6583C138.493 94.9871 142.224 93.1638 145.343 90.1936C148.461 87.2288 150.913 83.5293 152.71 79.1005C154.501 74.6769 155.685 69.6033 156.251 63.8903C156.816 58.1719 156.721 52.2368 155.971 46.0693C155.215 39.796 153.915 34.0512 152.076 28.8402V28.8349Z" fill="#1D1D1B"/>
<path d="M247.771 99.4001V87.9687C247.205 88.7561 246.328 89.9294 245.15 91.499C243.966 93.0687 242.407 94.6383 240.472 96.2027C238.538 97.7723 236.128 99.1729 233.248 100.404C230.367 101.636 226.943 102.254 222.979 102.254C219.295 102.254 215.823 101.414 212.568 99.7331C209.307 98.0524 206.474 95.727 204.069 92.7569C201.659 89.792 199.773 86.3145 198.404 82.3349C197.035 78.3606 196.348 74.1273 196.348 69.6403V17.5356C196.348 15.5167 196.015 14.1479 195.354 13.4186C194.694 12.6893 193.986 12.3246 193.23 12.3246C192.189 12.3246 191.391 12.6893 190.82 13.4186C190.254 14.1479 189.636 14.9037 188.981 15.6859L186.148 12.3246C186.523 11.6534 187.068 10.7285 187.776 9.54998C188.484 8.37142 189.382 7.22458 190.466 6.10416C191.549 4.98374 192.781 4.03245 194.149 3.24498C195.518 2.4628 197.098 2.06643 198.895 2.06643C203.144 2.06643 206.548 3.72063 209.095 7.02375C211.643 10.3322 212.922 14.6711 212.922 20.0513V70.3168C212.922 74.4655 213.371 77.9642 214.269 80.8234C215.168 83.6825 216.346 86.0079 217.81 87.7995C219.274 89.5912 220.971 90.8543 222.91 91.5836C224.845 92.3129 226.853 92.6776 228.93 92.6776C231.382 92.6776 233.628 92.1174 235.658 90.997C237.687 89.8765 239.484 88.587 241.043 87.1336C242.602 85.6803 243.95 84.1635 245.081 82.5938C246.217 81.0242 247.11 79.8509 247.771 79.0635V23.2487C247.771 20.1147 247.486 17.5092 246.92 15.4322C246.355 13.3605 245.594 11.7327 244.653 10.5594C243.707 9.38086 242.576 8.57225 241.255 8.12303C239.928 7.67909 238.512 7.45183 237.005 7.45183V3.92146H275.538V7.45183C273.741 7.45183 272.14 7.67909 270.724 8.12303C269.307 8.57225 268.102 9.38614 267.109 10.5594C266.115 11.7327 265.338 13.3605 264.773 15.4322C264.207 17.5092 263.922 20.1094 263.922 23.2487V80.2367C263.922 83.376 264.202 85.9551 264.773 87.9687C265.338 89.9875 266.12 91.5836 267.109 92.7569C268.102 93.9354 269.307 94.7493 270.724 95.1933C272.14 95.6425 273.747 95.8644 275.538 95.8644V99.3948H247.771V99.4001Z" fill="#1D1D1B"/>
<path d="M355.157 24.9293C354.966 23.8089 354.66 22.4665 354.237 20.8969C353.814 19.3272 353.101 17.8157 352.112 16.357C351.119 14.9037 349.777 13.667 348.075 12.6576C346.373 11.6481 344.153 11.146 341.416 11.146H329.091V80.0676C329.091 86.3462 330.127 90.5477 332.209 92.6776C334.286 94.8074 337.071 95.8697 340.57 95.8697V99.4001H301.472V95.8697C304.965 95.8697 307.75 94.8074 309.833 92.6776C311.91 90.5477 312.951 86.4043 312.951 80.2367V11.146H300.626C297.888 11.146 295.669 11.6481 293.967 12.6576C292.265 13.667 290.923 14.8984 289.929 16.357C288.936 17.8157 288.228 19.3272 287.805 20.8969C287.382 22.4665 287.07 23.8142 286.885 24.9293H284.052L286.6 0.385803H289.29C290.896 2.06643 292.477 3.07586 294.036 3.4141C295.595 3.75234 297.413 3.91618 299.49 3.91618H342.557C344.634 3.91618 346.452 3.74706 348.011 3.4141C349.57 3.08115 351.151 2.06643 352.757 0.385803H355.447L358 24.9293H355.167H355.157Z" fill="#1D1D1B"/>
<path d="M1.34772 157.815V154.285C4.8411 154.285 7.62629 153.222 9.70857 151.093C11.7856 148.963 12.8267 144.819 12.8267 138.652V81.6637C12.8267 75.3904 11.812 71.1888 9.78256 69.0537C7.75313 66.9238 4.94151 65.8616 1.353 65.8616V62.3312H40.5941V65.8616C38.7972 65.8616 37.1958 66.0888 35.7794 66.5327C34.3631 66.982 33.1581 67.7959 32.1645 68.9691C31.1709 70.1477 30.394 71.7438 29.8285 73.7573C29.263 75.7709 28.9776 78.3553 28.9776 81.4893V138.477C28.9776 141.617 29.263 144.222 29.8285 146.294C30.394 148.371 31.1762 149.993 32.1645 151.167C33.1581 152.345 34.3578 153.159 35.7794 153.603C37.1958 154.052 38.8024 154.274 40.5941 154.274V157.805H1.34772V157.815Z" fill="#957B4D"/>
<path d="M143.144 182.522H140.026C140.216 181.286 140.264 180.001 140.169 178.659C140.073 177.311 139.693 176.106 139.032 175.044C138.372 173.977 137.378 173.11 136.057 172.439C134.73 171.767 132.939 171.429 130.671 171.429H116.222C107.153 171.429 98.9403 169.86 91.573 166.72C84.2058 163.581 77.9008 159.353 72.6581 154.026C67.4154 148.704 63.3565 142.51 60.4762 135.449C57.5958 128.388 56.1583 120.884 56.1583 112.924C56.1583 105.975 57.2893 99.4212 59.5566 93.2589C61.8238 87.0966 64.9631 81.7165 68.9797 77.1186C72.991 72.5259 77.7634 68.911 83.2862 66.2738C88.809 63.6419 94.8339 62.3259 101.35 62.3259C107.867 62.3259 114.029 63.6471 119.557 66.2738C125.08 68.911 129.852 72.5259 133.864 77.1186C137.875 81.7165 140.993 87.0966 143.213 93.2589C145.432 99.4265 146.542 105.98 146.542 112.924C146.542 118.532 145.929 123.547 144.703 127.971C143.472 132.4 141.918 136.347 140.026 139.82C138.134 143.297 136.036 146.294 133.721 148.815C131.406 151.336 129.139 153.439 126.919 155.12C124.699 156.8 122.67 158.09 120.825 158.983C118.986 159.882 117.591 160.442 116.645 160.664H124.435C131.707 160.664 137.114 159.686 140.655 157.72C144.196 155.759 146.674 152.874 148.091 149.063H151.066L143.133 182.517L143.144 182.522ZM124.657 91.6629C122.818 86.3409 120.503 81.7747 117.718 77.9642C114.933 74.1537 111.719 71.3527 108.083 69.5611C104.447 67.7694 100.457 67.2092 96.1129 67.8804C91.7686 68.6679 88.0374 70.5441 84.9192 73.5142C81.8011 76.4844 79.3224 80.2367 77.4833 84.7765C75.6441 89.3163 74.4391 94.4692 73.8683 100.24C73.3028 106.012 73.3927 112.089 74.1484 118.479C74.9042 124.868 76.2043 130.751 78.0435 136.131C79.8826 141.511 82.1975 146.077 84.9879 149.829C87.7731 153.587 91.0076 156.388 94.6912 158.233C98.3748 160.082 102.386 160.616 106.73 159.829C111.075 159.047 114.806 157.17 117.924 154.195C121.042 151.225 123.494 147.472 125.291 142.933C127.083 138.393 128.267 133.24 128.832 127.469C129.398 121.697 129.303 115.62 128.552 109.23C127.796 102.841 126.496 96.9901 124.657 91.6629Z" fill="#957B4D"/>
<path d="M222.963 159.665V148.233C222.398 149.021 221.52 150.194 220.342 151.764C219.158 153.333 217.599 154.903 215.665 156.467C213.73 158.037 211.32 159.438 208.44 160.669C205.56 161.9 202.135 162.519 198.171 162.519C194.488 162.519 191.015 161.678 187.76 159.998C184.499 158.317 181.666 155.992 179.262 153.022C176.852 150.057 174.965 146.579 173.596 142.6C172.227 138.625 171.54 134.392 171.54 129.905V77.7951C171.54 75.7762 171.207 74.4074 170.547 73.6781C169.886 72.9487 169.178 72.5841 168.422 72.5841C167.381 72.5841 166.583 72.9487 166.012 73.6781C165.447 74.4074 164.828 75.1631 164.173 75.9453L161.34 72.5841C161.715 71.9129 162.26 70.988 162.968 69.8094C163.676 68.6309 164.575 67.484 165.658 66.3636C166.741 65.2432 167.973 64.2919 169.342 63.5044C170.711 62.7223 172.291 62.3259 174.088 62.3259C178.337 62.3259 181.74 63.9801 184.288 67.2832C186.835 70.5916 188.114 74.9306 188.114 80.3107V130.576C188.114 134.725 188.563 138.224 189.462 141.083C190.36 143.942 191.539 146.267 193.003 148.059C194.467 149.851 196.163 151.114 198.103 151.843C200.037 152.572 202.045 152.937 204.122 152.937C206.574 152.937 208.821 152.377 210.85 151.256C212.879 150.136 214.676 148.846 216.235 147.393C217.794 145.94 219.142 144.423 220.273 142.853C221.409 141.284 222.303 140.11 222.963 139.323V83.5134C222.963 80.3794 222.678 77.7739 222.112 75.6969C221.547 73.6252 220.786 71.9974 219.845 70.8242C218.899 69.6456 217.768 68.837 216.447 68.3878C215.12 67.9438 213.704 67.7166 212.198 67.7166V64.1862H250.731V67.7166C248.934 67.7166 247.332 67.9438 245.916 68.3878C244.5 68.837 243.295 69.6509 242.301 70.8242C241.307 71.9974 240.531 73.6252 239.965 75.6969C239.4 77.7739 239.114 80.3741 239.114 83.5134V140.501C239.114 143.641 239.394 146.22 239.965 148.233C240.531 150.252 241.313 151.848 242.301 153.022C243.289 154.195 244.5 155.014 245.916 155.458C247.332 155.907 248.939 156.129 250.731 156.129V159.66H222.963V159.665Z" fill="#957B4D"/>
<path d="M335.037 157.815H275.538V154.285C279.032 154.285 281.817 153.222 283.899 151.093C285.976 148.963 287.017 144.819 287.017 138.652V81.6637C287.017 75.3904 286.003 71.1888 283.973 69.0537C281.944 66.9238 279.132 65.8616 275.543 65.8616V62.3312H335.185L336.744 79.8139H333.345C333.06 78.4715 332.685 77.2084 332.209 76.0299C331.734 74.8513 331.078 73.8208 330.227 72.9223C329.376 72.0239 328.267 71.2998 326.898 70.7343C325.529 70.1741 323.854 69.894 321.866 69.894H303.168V106.038H313.511C320.593 106.038 324.134 102.735 324.134 96.1181H327.252V123.013H324.134C324.134 119.879 323.262 117.438 321.512 115.699C319.763 113.96 317.099 113.094 313.511 113.094H303.168V141.839C303.168 147.33 305.15 150.078 309.119 150.078H321.729C324.282 150.078 326.38 149.655 328.034 148.815C329.683 147.974 331.031 146.912 332.072 145.623C333.108 144.333 333.911 142.964 334.482 141.506C335.047 140.052 335.565 138.705 336.041 137.473H340.005L335.047 157.815H335.037Z" fill="#957B4D"/>
</svg>
