<svg width="772" height="314" viewBox="0 0 772 314" fill="none" xmlns="http://www.w3.org/2000/svg">
<path d="M269.793 146.225H181.388V141.148C191.37 141.148 197.888 136.561 197.888 118.676V36.7571C197.888 18.6361 191.573 14.0407 181.388 14.0407V8.96448H237.813V14.0407C227.628 14.0407 221.11 18.6279 221.11 36.5127V123.264C221.11 130.996 223.758 135.103 229.665 135.103H251.664C266.33 135.103 271.219 118.913 272.645 114.562H277.534L269.793 146.217V146.225Z" fill="none"/>
<path d="M281.812 75.4188V70.5871C286.293 67.2057 295.052 58.5037 295.052 43.5196C295.052 30.4748 280.997 17.4218 280.997 17.4218L295.46 0.0259399L299.941 4.37695C305.644 10.1783 312.774 20.0862 312.774 33.6117C312.774 65.2665 285.478 74.2047 281.812 75.4188Z" fill="none"/>
<path d="M396.087 150.331C357.588 150.331 331.107 117.707 331.107 77.5945C331.107 37.4822 357.588 4.85788 396.087 4.85788C434.586 4.85788 461.27 37.4822 461.27 77.5945C461.27 117.707 434.586 150.331 396.087 150.331ZM388.55 12.8347C363.495 16.9413 352.699 48.3597 356.977 84.121C361.255 119.882 378.773 146.461 403.827 142.354C428.882 138.248 439.475 106.829 435.197 71.068C430.919 35.3067 413.401 8.72814 388.55 12.8347Z" fill="none"/>
<path d="M572.692 148.881C560.674 148.881 556.396 142.843 551.711 135.347L520.138 86.052H515.86V118.432C515.86 136.553 520.342 141.148 530.526 141.148V146.224H476.546V141.148C486.528 141.148 493.046 136.561 493.046 118.676V36.7571C493.046 18.6361 486.731 14.0406 476.546 14.0406V8.96448H527.267C552.322 8.96448 569.84 21.5286 569.84 46.1761C569.84 68.4036 548.859 80.0063 544.989 81.701L575.136 127.37C577.173 130.515 579.007 131.721 581.655 131.721C584.71 131.721 587.358 128.095 589.192 125.92L593.062 130.271C589.803 137.278 582.673 148.881 572.692 148.881ZM524.619 17.9109H515.86V77.1137L526.045 79.0448C537.248 78.8004 546.415 64.0608 546.415 45.9398C546.415 30.475 540.508 17.9109 524.619 17.9109Z" fill="none"/>
<path d="M337.943 313.966C322.625 313.966 308.439 300.024 308.439 282.009C308.439 263.994 322.055 250.224 336.664 250.224C350.279 250.224 359.78 262.462 359.78 275.548V277.756H325.175C323.758 292.887 331.417 308.694 340.779 308.694C348.861 308.694 352.552 301.727 352.552 297.474C352.552 295.095 351.843 293.058 351.558 292.202L354.54 290.165L360.782 303.593C359.217 305.125 352.837 313.957 337.943 313.957V313.966ZM336.802 255.333C329.991 255.333 326.593 265.021 325.737 272.33H344.461C345.309 265.363 342.905 255.333 336.802 255.333Z" fill="none"/>
<path d="M395.1 313.966C388.012 313.966 381.909 310.739 379.644 310.739C378.226 310.739 376.523 312.442 376.099 313.461H374.258V292.211H376.385C379.22 302.241 385.038 308.702 392.835 308.702C398.653 308.702 401.488 305.476 401.488 300.717C401.488 295.959 395.671 292.732 389.006 288.308C385.315 285.929 374.258 280.657 374.258 267.914C374.258 256.189 382.202 249.556 391.703 249.556C398.514 249.556 402.621 252.449 404.894 252.449C406.459 252.449 408.015 251.088 408.3 249.899H410.142V268.085H408.015C406.312 261.289 399.932 254.828 393.976 254.828C388.02 254.828 385.893 258.397 385.893 261.623C385.893 266.211 390.146 268.932 393.414 270.969C397.814 273.691 403.485 276.917 407.314 280.828C410.573 284.055 413.132 288.479 413.132 294.598C413.132 306.836 403.916 313.974 395.117 313.974L395.1 313.966Z" fill="none"/>
<path d="M449.138 313.966C435.522 313.966 431.693 301.385 430.414 298.159V258.723H420.058L422.184 252.09H430.691L430.829 243.421C430.968 234.409 427.994 231.696 423.741 231.696V228.47H452.25V231.696C447.573 231.696 444.876 234.418 445.015 243.421L445.153 252.09H463.454L461.327 258.723H445.438V293.734C445.438 301.385 449.553 305.801 453.806 305.801C458.06 305.801 461.042 302.062 462.745 300.025L466.004 303.936C463.307 307.162 458.769 313.966 449.121 313.966H449.138Z" fill="none"/>
<path d="M605.153 86.2558V85.5307C607.027 85.5307 607.761 84.8055 607.761 81.97V77.0649C607.761 74.1969 607.068 73.4636 605.153 73.4636V72.7384H614.458V73.4636C612.544 73.4636 611.818 74.1887 611.818 77.0242V81.9293C611.818 84.7973 612.544 85.5307 614.458 85.5307V86.2558H605.153ZM609.79 70.0985L607.068 67.3771L609.79 64.6556L612.511 67.3771L609.79 70.0985Z" fill="none"/>
<path d="M631.048 86.6791C629.443 86.6791 627.985 85.3754 627.985 83.0044V76.3801C627.985 75.1905 627.145 74.2372 625.882 74.2372C624.848 74.2372 623.585 75.4594 623.357 75.6957V82.7029C623.357 84.8051 624.196 85.5384 625.5 85.5384V86.2636H616.692V85.5384C618.566 85.5384 619.299 84.8132 619.299 81.9777V77.0727C619.299 74.2046 618.606 73.4713 616.692 73.4713V72.7462H623.357V74.4654C623.699 74.1231 625.5 72.3224 627.952 72.3224C630.673 72.3224 631.782 74.6609 632.091 75.2313V83.6562C632.091 84.5362 632.515 84.7318 632.898 84.7318C633.281 84.7318 633.623 84.3895 633.819 84.1207L634.47 84.7725C634.202 85.1962 633.167 86.6873 631.065 86.6873L631.048 86.6791Z" fill="none"/>
<path d="M647.702 86.6792C646.512 86.6792 645.518 85.9133 644.948 84.8051C644.337 85.4977 643.188 86.6792 641.078 86.6792C638.853 86.6792 636.751 84.96 636.751 82.6215C636.751 78.7512 641.306 77.6839 644.638 77.415V74.2373H640.499C639.122 74.2373 638.625 75.0032 638.429 75.8424H637.59L638.429 72.7381H650.912V73.4632C649.494 73.4632 648.688 74.2699 648.688 76.6817V83.6482C648.688 84.5281 649.144 84.7237 649.494 84.7237C649.951 84.7237 650.26 84.3814 650.448 84.1126L651.099 84.7644C650.831 85.1881 649.796 86.6792 647.694 86.6792H647.702ZM644.638 78.3683C643.147 78.7105 640.621 79.7453 640.621 82.426C640.621 84.0311 641.958 84.6829 642.764 84.6829C643.571 84.6829 644.41 83.9903 644.638 83.7296V78.3683Z" fill="none"/>
<path d="M653.332 86.2555V85.5304C655.206 85.5304 655.939 84.8052 655.939 81.9697V68.8353C655.939 65.9672 655.246 65.2339 653.332 65.2339V64.5087H659.997V81.929C659.997 84.7971 660.722 85.5304 662.636 85.5304V86.2555H653.332Z" fill="none"/>
<path d="M671.943 86.679C668.268 86.679 667.234 83.8435 666.891 83.1183V74.2371H664.097L664.675 72.746H666.973L667.014 70.7905C667.054 68.7617 666.248 68.1506 665.099 68.1506V67.4254H672.799V68.1506C671.536 68.1506 670.811 68.7617 670.843 70.7905L670.884 72.746H675.822L675.243 74.2371H670.957V82.1243C670.957 83.8435 672.065 84.8457 673.214 84.8457C674.363 84.8457 675.17 84.0064 675.626 83.542L676.506 84.422C675.781 85.1471 674.55 86.679 671.951 86.679H671.943Z" fill="none"/>
<path d="M686.568 86.6795C682.429 86.6795 678.599 83.5425 678.599 79.4767C678.599 75.4109 682.274 72.3147 686.217 72.3147C689.892 72.3147 692.459 75.0687 692.459 78.0182V78.5152H683.113C682.73 81.9211 684.8 85.4817 687.325 85.4817C689.509 85.4817 690.503 83.9092 690.503 82.9559C690.503 82.4181 690.316 81.9618 690.234 81.7663L691.041 81.31L692.727 84.3329C692.304 84.6751 690.585 86.6713 686.56 86.6713L686.568 86.6795ZM686.266 73.4717C684.425 73.4717 683.512 75.6553 683.276 77.3012H688.328C688.556 75.7287 687.904 73.4717 686.258 73.4717H686.266ZM686.722 71.2066H685.647L687.252 64.1586H691.921L686.714 71.2066H686.722Z" fill="none"/>
<path d="M705.373 77.0727L702.619 75.0032L702.041 75.5002V81.9371C702.041 84.8051 702.766 85.5384 704.681 85.5384V86.2636H695.376V85.5384C697.25 85.5384 697.983 84.8133 697.983 81.9778V77.0727C697.983 74.2047 697.29 73.4714 695.376 73.4714V72.7462H702.041V74.3187L704.648 72.1351L707.174 73.7076H708.779L705.373 77.0809V77.0727Z" fill="none"/>
<path d="M721.076 86.6792C719.886 86.6792 718.892 85.9133 718.322 84.8051C717.711 85.4977 716.562 86.6792 714.452 86.6792C712.227 86.6792 710.125 84.96 710.125 82.6215C710.125 78.7512 714.68 77.6839 718.012 77.415V74.2373H713.873C712.496 74.2373 711.999 75.0032 711.804 75.8424H710.964L711.804 72.7381H724.286V73.4632C722.868 73.4632 722.062 74.2699 722.062 76.6817V83.6482C722.062 84.5281 722.518 84.7237 722.869 84.7237C723.325 84.7237 723.634 84.3814 723.822 84.1126L724.474 84.7644C724.205 85.1881 723.17 86.6792 721.068 86.6792H721.076ZM718.012 78.3683C716.521 78.7105 713.995 79.7453 713.995 82.426C713.995 84.0311 715.332 84.6829 716.138 84.6829C716.945 84.6829 717.784 83.9903 718.012 83.7296V78.3683Z" fill="none"/>
<path d="M736.93 86.6792C734.633 86.6792 733.37 85.6036 732.873 85.1881L732.644 86.2636H726.289V85.5384C728.163 85.5384 728.929 84.8133 728.929 81.9778V68.8433C728.929 65.9752 728.204 65.2419 726.289 65.2419V64.5168H735.635V65.2419C733.72 65.2419 732.995 65.9671 732.995 68.8026V73.9684C733.337 73.6995 734.722 72.3225 737.093 72.3225C739.961 72.3225 742.911 75.1172 742.911 79.2156C742.911 83.3141 740.344 86.6792 736.938 86.6792H736.93ZM735.398 74.0091C734.062 74.0091 733.256 74.9624 732.987 75.272V84.1207C733.256 84.4303 734.062 85.3103 735.284 85.3103C737.085 85.3103 738.535 83.0859 738.535 79.3786C738.535 76.2009 737.118 74.0173 735.398 74.0173V74.0091Z" fill="none"/>
<path d="M745.739 86.2555V85.5304C747.613 85.5304 748.347 84.8052 748.347 81.9697V68.8353C748.347 65.9672 747.654 65.2339 745.739 65.2339V64.5087H752.404V81.929C752.404 84.7971 753.129 85.5304 755.044 85.5304V86.2555H745.739Z" fill="none"/>
<path d="M765.84 86.6792C761.701 86.6792 757.872 83.5422 757.872 79.4764C757.872 75.4106 761.546 72.3144 765.49 72.3144C769.165 72.3144 771.731 75.0684 771.731 78.0179V78.515H762.385C762.003 81.9208 764.072 85.4814 766.598 85.4814C768.782 85.4814 769.776 83.9089 769.776 82.9556C769.776 82.4178 769.58 81.9615 769.507 81.766L770.313 81.3097L772 84.3326C771.576 84.6748 769.857 86.671 765.832 86.671L765.84 86.6792ZM765.539 73.4714C763.697 73.4714 762.785 75.655 762.548 77.3009H767.6C767.828 75.7284 767.176 73.4714 765.531 73.4714H765.539Z" fill="none"/>
<path d="M-6.10352e-05 85.4056V84.6804C1.87396 84.6804 2.60728 83.9553 2.60728 81.1198V76.2148C2.60728 73.3467 1.9147 72.6134 -6.10352e-05 72.6134V71.8882H9.30486V72.6134C7.3901 72.6134 6.66494 73.3385 6.66494 76.174V81.0791C6.66494 83.9471 7.3901 84.6804 9.30486 84.6804V85.4056H-6.10352e-05ZM4.63611 69.2483L1.9147 66.5269L4.63611 63.8055L7.35751 66.5269L4.63611 69.2483Z" fill="none"/>
<path d="M25.886 85.824C24.2808 85.824 22.8224 84.5203 22.8224 82.1493V75.5251C22.8224 74.3355 21.9831 73.3821 20.7202 73.3821C19.6854 73.3821 18.4225 74.6043 18.1943 74.8406V81.8478C18.1943 83.95 19.0336 84.6833 20.3373 84.6833V85.4085H11.5293V84.6833C13.4034 84.6833 14.1367 83.9582 14.1367 81.1227V76.2176C14.1367 73.3495 13.4441 72.6162 11.5293 72.6162V71.8911H18.1943V73.6103C18.5366 73.2681 20.3372 71.4674 22.7898 71.4674C25.5112 71.4674 26.6193 73.8058 26.9289 74.3762V82.8011C26.9289 83.6811 27.3526 83.8767 27.7356 83.8767C28.1185 83.8767 28.4607 83.5345 28.6563 83.2656L29.3081 83.9174C29.0392 84.3411 28.0045 85.8322 25.9023 85.8322L25.886 85.824Z" fill="none"/>
<path d="M39.2563 85.8241C34.889 85.8241 31.7928 82.6464 31.7928 78.6621C31.7928 74.6777 34.8971 71.4593 39.2563 71.4593C43.6154 71.4593 46.7198 74.6777 46.7198 78.6621C46.7198 82.6464 43.6154 85.8241 39.2563 85.8241ZM39.2563 72.5756C37.4556 72.5756 36.1519 74.8325 36.1519 78.6621C36.1519 82.4916 37.4556 84.716 39.2563 84.716C41.057 84.716 42.3606 82.459 42.3606 78.6621C42.3606 74.8651 41.057 72.5756 39.2563 72.5756Z" fill="none"/>
<path d="M53.6129 82.4183C52.35 83.9094 53.0752 84.6753 53.9959 84.6753V85.4004H48.056V84.6753C49.6612 84.6753 50.6634 83.9501 52.3092 82.0679L54.3788 79.6154L51.3559 75.1748C50.2804 73.6022 49.5553 72.6082 48.0642 72.6082V71.883H56.1469V72.6082C55.2669 72.6082 54.9247 73.3334 55.6092 74.4822L56.9862 76.5844L58.4039 74.8652C59.7076 73.4067 59.015 72.6082 58.0943 72.6082V71.883H64.0667V72.6082C62.4616 72.6082 61.1905 73.6837 59.7809 75.1748L57.6787 77.668L60.7016 82.1087C62.0053 84.0968 62.926 84.6753 64.3763 84.6753V85.4004H55.8373V84.6753C56.7173 84.6753 57.1002 83.9827 56.4076 82.8013L55.0307 80.6991L53.6129 82.4183Z" fill="none"/>
<path d="M66.0635 85.4003V84.6751C67.9375 84.6751 68.6708 83.9499 68.6708 81.1144V76.2094C68.6708 73.3413 67.9782 72.608 66.0635 72.608V71.8828H75.3684V72.608C73.4536 72.608 72.7285 73.3332 72.7285 76.1686V81.0737C72.7285 83.9418 73.4536 84.6751 75.3684 84.6751V85.4003H66.0635ZM70.6915 69.2429L67.9701 66.5215L70.6915 63.8001L73.4129 66.5215L70.6915 69.2429Z" fill="none"/>
<path d="M88.3072 85.4004V83.6404L84.9014 85.824C84.0214 85.5144 78.3912 83.5671 78.3912 78.3198C78.3912 74.4169 81.2267 71.4674 84.5918 71.4674C86.6939 71.4674 88.0791 72.3066 88.3072 72.5022V67.9801C88.3072 65.112 87.5821 64.3787 85.6999 64.3787V63.6535H95.0048V64.3787C93.1308 64.3787 92.3649 65.1039 92.3649 67.9394V81.0738C92.3649 83.9419 93.09 84.6752 95.0048 84.6752V85.4004H88.3072ZM88.3072 73.5695C88.0383 73.3414 87.2317 72.6896 86.0502 72.6896C84.3229 72.6896 82.7585 74.914 82.7585 78.2791C82.7585 82.2634 85.1295 83.6811 85.594 83.9826L88.3154 82.4915V73.5695H88.3072Z" fill="none"/>
<path d="M108.188 85.8241C106.999 85.8241 106.005 85.0582 105.434 83.9501C104.823 84.6427 103.674 85.8241 101.564 85.8241C99.3397 85.8241 97.2376 84.1049 97.2376 81.7664C97.2376 77.8962 101.792 76.8288 105.125 76.5599V73.3822H100.986C99.6086 73.3822 99.1116 74.1481 98.9161 74.9874H98.0768L98.9161 71.883H111.399V72.6082C109.981 72.6082 109.174 73.4148 109.174 75.8266V82.7931C109.174 83.6731 109.631 83.8686 109.981 83.8686C110.437 83.8686 110.747 83.5264 110.934 83.2575L111.586 83.9093C111.317 84.333 110.282 85.8241 108.18 85.8241H108.188ZM105.125 77.5132C103.634 77.8555 101.108 78.8902 101.108 81.5709C101.108 83.176 102.444 83.8279 103.251 83.8279C104.057 83.8279 104.897 83.1353 105.125 82.8746V77.5132Z" fill="none"/>
<path d="M124.036 85.8241C121.738 85.8241 120.475 84.7486 119.978 84.3331L119.75 85.4086H113.395V84.6834C115.269 84.6834 116.035 83.9583 116.035 81.1228V67.9883C116.035 65.1203 115.309 64.3869 113.395 64.3869V63.6618H122.74V64.3869C120.826 64.3869 120.1 65.1121 120.1 67.9476V73.1134C120.443 72.8445 121.828 71.4675 124.199 71.4675C127.075 71.4675 130.016 74.2622 130.016 78.3606C130.016 82.459 127.45 85.8241 124.044 85.8241H124.036ZM122.504 73.146C121.168 73.146 120.361 74.0993 120.092 74.4089V83.2576C120.361 83.5672 121.168 84.4471 122.39 84.4471C124.191 84.4471 125.641 82.2228 125.641 78.5154C125.641 75.3378 124.223 73.1541 122.504 73.1541V73.146Z" fill="none"/>
<path d="M132.844 85.4004V84.6752C134.718 84.6752 135.451 83.95 135.451 81.1145V67.9801C135.451 65.112 134.759 64.3787 132.844 64.3787V63.6535H139.509V81.0738C139.509 83.9419 140.234 84.6752 142.149 84.6752V85.4004H132.844Z" fill="none"/>
<path d="M152.953 85.8241C148.813 85.8241 144.984 82.6871 144.984 78.6213C144.984 74.5555 148.659 71.4593 152.602 71.4593C156.277 71.4593 158.844 74.2133 158.844 77.1628V77.6599H149.498C149.115 81.0657 151.184 84.6263 153.71 84.6263C155.894 84.6263 156.888 83.0538 156.888 82.1005C156.888 81.5627 156.701 81.1064 156.619 80.9109L157.426 80.4546L159.112 83.4775C158.689 83.8197 156.969 85.8159 152.944 85.8159L152.953 85.8241ZM152.643 72.6082C150.802 72.6082 149.889 74.7918 149.653 76.4377H154.704C154.933 74.8651 154.281 72.6082 152.635 72.6082H152.643Z" fill="none"/>
<path d="M190.384 195.34C190.14 195.446 189.912 195.552 189.708 195.642C189.504 195.739 189.244 195.837 188.918 195.943C188.641 196.033 188.347 196.106 188.022 196.163C187.696 196.22 187.345 196.253 186.954 196.253C186.221 196.253 185.561 196.147 184.966 195.943C184.371 195.739 183.85 195.413 183.41 194.982C182.978 194.55 182.636 194.012 182.399 193.352C182.163 192.692 182.033 191.926 182.033 191.046C182.033 190.215 182.147 189.474 182.383 188.822C182.619 188.17 182.953 187.616 183.402 187.168C183.833 186.728 184.347 186.394 184.95 186.166C185.553 185.937 186.229 185.823 186.97 185.823C187.508 185.823 188.054 185.888 188.592 186.019C189.13 186.149 189.733 186.377 190.384 186.711V188.3H190.287C189.733 187.836 189.179 187.494 188.633 187.282C188.087 187.07 187.5 186.964 186.881 186.964C186.367 186.964 185.911 187.045 185.504 187.208C185.096 187.371 184.73 187.632 184.412 187.974C184.102 188.308 183.858 188.74 183.687 189.254C183.516 189.767 183.426 190.37 183.426 191.046C183.426 191.722 183.524 192.366 183.711 192.871C183.907 193.376 184.151 193.792 184.453 194.118C184.77 194.452 185.137 194.696 185.561 194.859C185.985 195.022 186.425 195.096 186.897 195.096C187.541 195.096 188.144 194.982 188.706 194.762C189.268 194.542 189.798 194.208 190.287 193.768H190.384V195.34Z" fill="none"/>
<path d="M207.43 185.546L205.597 189.326H204.66L205.776 185.546H207.43Z" fill="none"/>
<path d="M227.538 192.423H221.973C221.973 192.887 222.047 193.295 222.185 193.637C222.324 193.979 222.519 194.264 222.764 194.484C223 194.704 223.277 194.859 223.595 194.973C223.913 195.087 224.271 195.136 224.662 195.136C225.176 195.136 225.697 195.03 226.218 194.827C226.74 194.623 227.107 194.419 227.335 194.224H227.4V195.609C226.968 195.788 226.536 195.943 226.088 196.065C225.64 196.187 225.175 196.244 224.678 196.244C223.424 196.244 222.446 195.902 221.745 195.226C221.044 194.55 220.694 193.58 220.694 192.333C220.694 191.087 221.028 190.117 221.704 189.392C222.381 188.667 223.269 188.3 224.369 188.3C225.387 188.3 226.17 188.602 226.724 189.196C227.278 189.791 227.555 190.639 227.555 191.73V192.423H227.538ZM226.3 191.453C226.3 190.785 226.129 190.272 225.795 189.905C225.461 189.539 224.956 189.359 224.279 189.359C223.603 189.359 223.057 189.563 222.65 189.962C222.242 190.362 222.014 190.859 221.965 191.453H226.292H226.3Z" fill="none"/>
<path d="M247.525 193.898C247.525 194.59 247.24 195.153 246.67 195.593C246.099 196.033 245.317 196.253 244.331 196.253C243.769 196.253 243.256 196.187 242.791 196.049C242.327 195.919 241.936 195.772 241.618 195.609V194.183H241.683C242.082 194.485 242.53 194.729 243.019 194.9C243.508 195.079 243.981 195.169 244.437 195.169C244.999 195.169 245.431 195.079 245.749 194.9C246.067 194.721 246.221 194.436 246.221 194.045C246.221 193.743 246.14 193.523 245.961 193.368C245.782 193.213 245.464 193.083 244.975 192.977C244.796 192.936 244.559 192.888 244.266 192.839C243.973 192.782 243.712 192.725 243.476 192.659C242.816 192.488 242.343 192.228 242.066 191.885C241.789 191.543 241.65 191.128 241.65 190.631C241.65 190.321 241.716 190.028 241.846 189.751C241.976 189.474 242.172 189.229 242.433 189.009C242.685 188.797 243.011 188.626 243.394 188.504C243.777 188.382 244.217 188.317 244.706 188.317C245.154 188.317 245.61 188.374 246.075 188.479C246.539 188.594 246.922 188.724 247.232 188.879V190.239H247.167C246.841 190.003 246.45 189.799 245.985 189.636C245.521 189.474 245.064 189.392 244.616 189.392C244.168 189.392 243.761 189.482 243.435 189.661C243.117 189.84 242.954 190.101 242.954 190.459C242.954 190.769 243.052 191.005 243.248 191.16C243.435 191.315 243.745 191.445 244.168 191.543C244.405 191.6 244.665 191.649 244.959 191.706C245.252 191.763 245.496 191.812 245.684 191.853C246.279 191.991 246.727 192.219 247.053 192.545C247.37 192.879 247.533 193.319 247.533 193.873L247.525 193.898Z" fill="none"/>
<path d="M265.923 196.008C265.687 196.073 265.426 196.122 265.141 196.163C264.856 196.204 264.604 196.228 264.384 196.228C263.609 196.228 263.023 196.024 262.624 195.609C262.224 195.193 262.021 194.525 262.021 193.613V189.596H261.165V188.528H262.021V186.353H263.292V188.528H265.915V189.596H263.292V193.042C263.292 193.441 263.3 193.751 263.316 193.971C263.332 194.191 263.398 194.403 263.504 194.598C263.601 194.778 263.74 194.908 263.911 194.998C264.082 195.079 264.351 195.12 264.709 195.12C264.913 195.12 265.133 195.087 265.361 195.03C265.589 194.965 265.752 194.916 265.85 194.876H265.915V196.016L265.923 196.008Z" fill="none"/>
<path d="M298.939 196.073H297.668V185.546H298.939V196.073Z" fill="none"/>
<path d="M320.433 192.423H314.868C314.868 192.887 314.941 193.295 315.079 193.637C315.218 193.979 315.414 194.264 315.658 194.484C315.894 194.704 316.171 194.859 316.497 194.973C316.823 195.087 317.173 195.136 317.565 195.136C318.078 195.136 318.599 195.03 319.121 194.827C319.642 194.623 320.009 194.419 320.237 194.224H320.302V195.609C319.87 195.788 319.439 195.943 318.991 196.065C318.542 196.187 318.078 196.244 317.581 196.244C316.326 196.244 315.348 195.902 314.648 195.226C313.947 194.55 313.597 193.58 313.597 192.333C313.597 191.087 313.931 190.117 314.607 189.392C315.283 188.667 316.171 188.3 317.271 188.3C318.29 188.3 319.08 188.602 319.626 189.196C320.172 189.791 320.457 190.639 320.457 191.73V192.423H320.433ZM319.202 191.453C319.202 190.785 319.031 190.272 318.697 189.905C318.363 189.539 317.866 189.359 317.19 189.359C316.514 189.359 315.968 189.563 315.56 189.962C315.153 190.362 314.925 190.859 314.876 191.453H319.202Z" fill="none"/>
<path d="M363.577 196.073H362.306V191.771C362.306 191.445 362.289 191.136 362.265 190.834C362.232 190.533 362.175 190.288 362.078 190.109C361.972 189.913 361.825 189.767 361.629 189.669C361.434 189.571 361.157 189.522 360.79 189.522C360.424 189.522 360.073 189.612 359.723 189.791C359.364 189.97 359.014 190.199 358.655 190.467C358.672 190.573 358.68 190.687 358.688 190.826C358.696 190.964 358.704 191.103 358.704 191.233V196.073H357.433V191.771C357.433 191.437 357.417 191.119 357.393 190.818C357.368 190.516 357.303 190.28 357.205 190.101C357.099 189.905 356.953 189.759 356.757 189.661C356.561 189.563 356.284 189.514 355.918 189.514C355.551 189.514 355.225 189.596 354.875 189.767C354.524 189.938 354.174 190.158 353.832 190.427V196.065H352.561V188.512H353.832V189.351C354.231 189.025 354.622 188.765 355.021 188.577C355.413 188.39 355.836 188.3 356.284 188.3C356.798 188.3 357.238 188.406 357.596 188.626C357.955 188.846 358.224 189.139 358.395 189.522C358.908 189.09 359.381 188.781 359.804 188.585C360.228 188.39 360.684 188.3 361.165 188.3C361.996 188.3 362.607 188.553 362.998 189.058C363.389 189.563 363.593 190.264 363.593 191.168V196.073H363.577Z" fill="none"/>
<path d="M385.014 192.423H379.449C379.449 192.888 379.522 193.295 379.66 193.637C379.799 193.979 379.994 194.265 380.239 194.485C380.475 194.705 380.752 194.859 381.078 194.973C381.404 195.087 381.754 195.136 382.145 195.136C382.659 195.136 383.18 195.03 383.702 194.827C384.223 194.623 384.59 194.419 384.818 194.224H384.883V195.609C384.451 195.788 384.019 195.943 383.571 196.065C383.123 196.187 382.659 196.244 382.162 196.244C380.907 196.244 379.929 195.902 379.229 195.226C378.528 194.55 378.177 193.58 378.177 192.334C378.177 191.087 378.511 190.117 379.188 189.392C379.864 188.667 380.752 188.3 381.852 188.3C382.871 188.3 383.661 188.602 384.207 189.197C384.753 189.791 385.038 190.639 385.038 191.731V192.423H385.014ZM383.775 191.454C383.775 190.785 383.604 190.272 383.27 189.905C382.936 189.539 382.439 189.36 381.763 189.36C381.086 189.36 380.54 189.563 380.133 189.962C379.726 190.362 379.497 190.859 379.449 191.454H383.775ZM383.93 184.74L382.08 187.265H381.07L382.284 184.74H383.93Z" fill="none"/>
<path d="M403.526 196.008C403.289 196.073 403.029 196.122 402.743 196.163C402.458 196.204 402.214 196.228 401.986 196.228C401.212 196.228 400.625 196.024 400.226 195.609C399.826 195.193 399.623 194.525 399.623 193.613V189.596H398.767V188.528H399.623V186.353H400.894V188.528H403.517V189.596H400.894V193.042C400.894 193.441 400.902 193.751 400.918 193.971C400.935 194.191 401 194.403 401.106 194.598C401.203 194.778 401.342 194.908 401.513 194.998C401.684 195.087 401.953 195.12 402.312 195.12C402.515 195.12 402.735 195.087 402.963 195.03C403.192 194.965 403.354 194.916 403.452 194.876H403.517V196.016L403.526 196.008Z" fill="none"/>
<path d="M423.586 196.073H422.323V195.267C422.209 195.34 422.054 195.454 421.867 195.584C421.679 195.715 421.492 195.829 421.312 195.91C421.101 196.016 420.856 196.098 420.579 196.171C420.302 196.244 419.984 196.277 419.61 196.277C418.933 196.277 418.355 196.049 417.882 195.601C417.41 195.153 417.173 194.574 417.173 193.873C417.173 193.303 417.296 192.839 417.54 192.48C417.784 192.122 418.135 191.845 418.591 191.649C419.047 191.445 419.601 191.307 420.245 191.233C420.889 191.16 421.581 191.103 422.323 191.071V190.875C422.323 190.59 422.274 190.345 422.168 190.158C422.07 189.971 421.924 189.816 421.728 189.71C421.549 189.604 421.329 189.539 421.076 189.498C420.824 189.465 420.563 189.441 420.286 189.441C419.952 189.441 419.577 189.482 419.17 189.571C418.762 189.661 418.338 189.783 417.898 189.954H417.833V188.667C418.078 188.602 418.436 188.528 418.909 188.447C419.381 188.365 419.838 188.325 420.294 188.325C420.824 188.325 421.288 188.365 421.687 188.455C422.078 188.545 422.421 188.691 422.714 188.903C422.999 189.107 423.211 189.376 423.366 189.71C423.512 190.036 423.586 190.451 423.586 190.932V196.057V196.073ZM422.323 194.216V192.113C421.932 192.138 421.475 192.171 420.954 192.211C420.432 192.26 420.009 192.325 419.707 192.407C419.341 192.513 419.047 192.676 418.819 192.888C418.591 193.099 418.477 193.409 418.477 193.792C418.477 194.224 418.607 194.55 418.868 194.77C419.129 194.99 419.528 195.096 420.066 195.096C420.514 195.096 420.921 195.006 421.288 194.835C421.655 194.664 421.997 194.452 422.315 194.207L422.323 194.216Z" fill="none"/>
<path d="M439.98 196.073H438.709V185.546H439.98V196.073Z" fill="none"/>
<path d="M479.334 192.203C479.334 192.814 479.244 193.376 479.073 193.881C478.902 194.387 478.649 194.818 478.332 195.169C478.03 195.503 477.68 195.764 477.281 195.943C476.873 196.122 476.449 196.22 476.001 196.22C475.61 196.22 475.252 196.179 474.934 196.09C474.616 196 474.29 195.87 473.964 195.69V198.852H472.693V188.512H473.964V189.302C474.307 189.017 474.681 188.781 475.105 188.585C475.529 188.39 475.977 188.3 476.458 188.3C477.37 188.3 478.079 188.642 478.584 189.335C479.089 190.019 479.342 190.981 479.342 192.203H479.334ZM478.022 192.236C478.022 191.323 477.867 190.647 477.558 190.19C477.248 189.742 476.767 189.514 476.124 189.514C475.757 189.514 475.39 189.596 475.024 189.75C474.657 189.905 474.298 190.117 473.964 190.37V194.647C474.323 194.81 474.633 194.916 474.893 194.981C475.154 195.047 475.447 195.071 475.773 195.071C476.482 195.071 477.036 194.835 477.427 194.354C477.826 193.873 478.022 193.164 478.022 192.227V192.236Z" fill="none"/>
<path d="M499.851 196.073H498.588V195.267C498.474 195.34 498.319 195.454 498.132 195.584C497.944 195.715 497.757 195.829 497.578 195.91C497.366 196.016 497.121 196.098 496.844 196.171C496.567 196.244 496.249 196.277 495.875 196.277C495.198 196.277 494.62 196.049 494.147 195.601C493.675 195.153 493.438 194.574 493.438 193.873C493.438 193.303 493.561 192.839 493.805 192.48C494.05 192.122 494.4 191.845 494.856 191.649C495.312 191.445 495.867 191.307 496.51 191.233C497.154 191.16 497.846 191.103 498.588 191.071V190.875C498.588 190.59 498.539 190.345 498.433 190.158C498.335 189.971 498.189 189.816 497.993 189.71C497.814 189.604 497.594 189.539 497.341 189.498C497.089 189.465 496.828 189.441 496.551 189.441C496.217 189.441 495.842 189.482 495.435 189.571C495.027 189.661 494.604 189.783 494.164 189.954H494.098V188.667C494.343 188.602 494.701 188.528 495.174 188.447C495.647 188.365 496.103 188.325 496.559 188.325C497.089 188.325 497.553 188.365 497.952 188.455C498.343 188.545 498.686 188.691 498.979 188.903C499.264 189.107 499.476 189.376 499.631 189.71C499.777 190.036 499.851 190.451 499.851 190.932V196.057V196.073ZM498.588 194.216V192.113C498.197 192.138 497.741 192.171 497.219 192.211C496.698 192.26 496.274 192.325 495.972 192.407C495.606 192.513 495.312 192.676 495.084 192.888C494.856 193.099 494.742 193.409 494.742 193.792C494.742 194.224 494.872 194.55 495.133 194.77C495.394 194.99 495.793 195.096 496.331 195.096C496.779 195.096 497.186 195.006 497.553 194.835C497.92 194.664 498.262 194.452 498.58 194.207L498.588 194.216Z" fill="none"/>
<path d="M519.675 189.905H519.609C519.422 189.856 519.235 189.824 519.055 189.808C518.876 189.783 518.664 189.775 518.42 189.775C518.029 189.775 517.646 189.865 517.287 190.036C516.921 190.207 516.57 190.435 516.236 190.712V196.073H514.965V188.52H516.236V189.636C516.741 189.229 517.189 188.944 517.572 188.773C517.955 188.602 518.355 188.52 518.754 188.52C518.974 188.52 519.137 188.52 519.235 188.536C519.332 188.553 519.479 188.569 519.683 188.602V189.905H519.675Z" fill="none"/>
<path d="M537.592 186.776H537.527C537.389 186.735 537.201 186.695 536.981 186.654C536.753 186.613 536.558 186.589 536.386 186.589C535.84 186.589 535.441 186.711 535.197 186.947C534.952 187.184 534.83 187.624 534.83 188.259V188.52H537.12V189.587H534.871V196.073H533.6V189.587H532.744V188.52H533.6V188.267C533.6 187.371 533.82 186.678 534.268 186.198C534.716 185.717 535.36 185.481 536.199 185.481C536.484 185.481 536.737 185.497 536.965 185.521C537.193 185.546 537.405 185.578 537.592 185.619V186.784V186.776Z" fill="none"/>
<path d="M556.926 196.073H555.663V195.267C555.549 195.34 555.395 195.454 555.207 195.584C555.02 195.715 554.832 195.829 554.653 195.91C554.441 196.016 554.197 196.098 553.92 196.171C553.643 196.244 553.325 196.277 552.95 196.277C552.274 196.277 551.695 196.049 551.223 195.601C550.75 195.153 550.514 194.574 550.514 193.873C550.514 193.303 550.636 192.839 550.881 192.48C551.125 192.122 551.475 191.845 551.932 191.649C552.388 191.445 552.942 191.307 553.586 191.233C554.229 191.16 554.922 191.103 555.663 191.071V190.875C555.663 190.59 555.615 190.345 555.509 190.158C555.411 189.971 555.264 189.816 555.069 189.71C554.889 189.604 554.669 189.539 554.417 189.498C554.164 189.465 553.903 189.441 553.626 189.441C553.292 189.441 552.918 189.482 552.51 189.571C552.103 189.661 551.679 189.783 551.239 189.954H551.174V188.667C551.418 188.602 551.777 188.528 552.249 188.447C552.722 188.365 553.178 188.325 553.635 188.325C554.164 188.325 554.629 188.365 555.028 188.455C555.419 188.545 555.761 188.691 556.054 188.903C556.34 189.107 556.552 189.376 556.706 189.71C556.853 190.036 556.926 190.451 556.926 190.932V196.057V196.073ZM555.663 194.216V192.113C555.272 192.138 554.816 192.171 554.295 192.211C553.773 192.26 553.349 192.325 553.048 192.407C552.681 192.513 552.388 192.676 552.16 192.888C551.932 193.099 551.818 193.409 551.818 193.792C551.818 194.224 551.948 194.55 552.209 194.77C552.469 194.99 552.869 195.096 553.406 195.096C553.855 195.096 554.262 195.006 554.629 194.835C554.995 194.664 555.337 194.452 555.655 194.207L555.663 194.216Z" fill="none"/>
<path d="M573.401 187.257H571.967V185.937H573.401V187.257ZM573.32 196.073H572.049V188.52H573.32V196.073Z" fill="none"/>
<path d="M592.419 196.008C592.182 196.073 591.922 196.122 591.636 196.163C591.351 196.204 591.107 196.228 590.879 196.228C590.105 196.228 589.518 196.024 589.119 195.609C588.719 195.193 588.516 194.525 588.516 193.613V189.596H587.66V188.528H588.516V186.353H589.787V188.528H592.41V189.596H589.787V193.042C589.787 193.441 589.795 193.751 589.811 193.971C589.828 194.191 589.893 194.403 589.999 194.598C590.096 194.778 590.235 194.908 590.406 194.998C590.577 195.087 590.846 195.12 591.205 195.12C591.408 195.12 591.628 195.087 591.856 195.03C592.085 194.965 592.248 194.916 592.345 194.876H592.41V196.016L592.419 196.008Z" fill="none"/>
</svg>
