<svg width="938" height="664" viewBox="0 0 938 664" fill="none" xmlns="http://www.w3.org/2000/svg">
<path d="M356.75 321.585H271.357V316.679C280.998 316.679 287.294 312.245 287.294 294.959V215.783C287.294 198.268 281.195 193.827 271.357 193.827V188.921H325.859V193.827C316.021 193.827 309.725 198.26 309.725 215.546V299.393C309.725 306.866 312.282 310.836 317.988 310.836H339.238C353.405 310.836 358.127 295.188 359.504 290.982H364.226L356.75 321.577V321.585Z" fill="white"/>
<path d="M368.358 253.15V248.48C372.687 245.212 381.148 236.801 381.148 222.319C381.148 209.711 367.571 197.095 367.571 197.095L381.541 180.282L385.87 184.487C391.379 190.094 398.266 199.67 398.266 212.743C398.266 243.338 371.9 251.977 368.358 253.15Z" fill="white"/>
<path d="M478.739 325.554C441.552 325.554 415.974 294.022 415.974 255.253C415.974 216.484 441.552 184.951 478.739 184.951C515.927 184.951 541.702 216.484 541.702 255.253C541.702 294.022 515.927 325.554 478.739 325.554ZM471.459 192.661C447.258 196.63 436.83 226.997 440.962 261.561C445.094 296.125 462.015 321.813 486.216 317.844C510.417 313.875 520.649 283.509 516.517 248.945C512.385 214.381 495.464 188.692 471.459 192.661Z" fill="white"/>
<path d="M649.329 324.152C637.72 324.152 633.588 318.317 629.062 311.072L598.565 263.427H594.433V294.723C594.433 312.237 598.762 316.679 608.6 316.679V321.585H556.459V316.679C566.1 316.679 572.396 312.245 572.396 294.959V215.783C572.396 198.268 566.297 193.827 556.459 193.827V188.921H605.452C629.653 188.921 646.574 201.064 646.574 224.886C646.574 246.37 626.308 257.584 622.569 259.222L651.69 303.362C653.657 306.402 655.428 307.567 657.986 307.567C660.937 307.567 663.495 304.063 665.266 301.96L669.004 306.166C665.856 312.938 658.97 324.152 649.329 324.152ZM602.894 197.567H594.433V254.788L604.271 256.655C615.093 256.418 623.947 242.172 623.947 224.658C623.947 209.711 618.241 197.567 602.894 197.567Z" fill="white"/>
<path d="M422.577 483.711C407.781 483.711 394.079 470.236 394.079 452.824C394.079 435.412 407.23 422.103 421.341 422.103C434.493 422.103 443.669 433.932 443.669 446.579V448.714H410.244C408.875 463.338 416.273 478.615 425.316 478.615C433.123 478.615 436.688 471.882 436.688 467.771C436.688 465.472 436.004 463.503 435.728 462.676L438.609 460.707L444.637 473.686C443.126 475.166 436.964 483.703 422.577 483.703V483.711ZM421.475 427.041C414.896 427.041 411.614 436.405 410.787 443.469H428.873C429.692 436.735 427.37 427.041 421.475 427.041Z" fill="white"/>
<path d="M477.787 483.711C470.94 483.711 465.045 480.592 462.857 480.592C461.488 480.592 459.843 482.238 459.434 483.222H457.655V462.684H459.709C462.448 472.378 468.067 478.623 475.599 478.623C481.219 478.623 483.958 475.505 483.958 470.906C483.958 466.307 478.338 463.188 471.9 458.912C468.335 456.612 457.655 451.517 457.655 439.2C457.655 427.868 465.328 421.458 474.505 421.458C481.085 421.458 485.051 424.253 487.247 424.253C488.758 424.253 490.262 422.938 490.537 421.788H492.316V439.366H490.262C488.617 432.798 482.454 426.553 476.701 426.553C470.948 426.553 468.894 430.002 468.894 433.121C468.894 437.554 473.002 440.185 476.158 442.154C480.408 444.784 485.886 447.902 489.585 451.682C492.733 454.801 495.204 459.077 495.204 464.991C495.204 476.82 486.303 483.718 477.803 483.718L477.787 483.711Z" fill="white"/>
<path d="M529.983 483.711C516.832 483.711 513.133 471.551 511.897 468.433V430.317H501.894L503.948 423.907H512.165L512.298 415.528C512.432 406.818 509.56 404.195 505.451 404.195V401.077H532.99V404.195C528.472 404.195 525.867 406.826 526.001 415.528L526.134 423.907H543.811L541.757 430.317H526.41V464.157C526.41 471.551 530.384 475.82 534.493 475.82C538.601 475.82 541.482 472.205 543.126 470.236L546.275 474.016C543.67 477.135 539.286 483.711 529.967 483.711H529.983Z" fill="white"/>
<path d="M680.684 263.624V262.923C682.494 262.923 683.202 262.222 683.202 259.482V254.741C683.202 251.969 682.533 251.26 680.684 251.26V250.559H689.672V251.26C687.822 251.26 687.122 251.961 687.122 254.702V259.442C687.122 262.214 687.822 262.923 689.672 262.923V263.624H680.684ZM685.162 248.008L682.533 245.377L685.162 242.747L687.791 245.377L685.162 248.008Z" fill="white"/>
<path d="M705.696 264.034C704.145 264.034 702.736 262.774 702.736 260.482V254.079C702.736 252.93 701.926 252.008 700.706 252.008C699.706 252.008 698.486 253.19 698.266 253.418V260.191C698.266 262.222 699.077 262.931 700.336 262.931V263.632H691.828V262.931C693.638 262.931 694.347 262.23 694.347 259.49V254.749C694.347 251.977 693.678 251.268 691.828 251.268V250.567H698.266V252.229C698.597 251.898 700.336 250.158 702.705 250.158C705.334 250.158 706.404 252.418 706.703 252.969V261.112C706.703 261.962 707.112 262.151 707.482 262.151C707.852 262.151 708.183 261.821 708.372 261.561L709.001 262.191C708.741 262.6 707.742 264.041 705.711 264.041L705.696 264.034Z" fill="white"/>
<path d="M721.783 264.034C720.633 264.034 719.673 263.293 719.122 262.222C718.532 262.892 717.422 264.034 715.384 264.034C713.235 264.034 711.205 262.372 711.205 260.112C711.205 256.371 715.604 255.339 718.823 255.08V252.008H714.825C713.495 252.008 713.015 252.749 712.826 253.56H712.015L712.826 250.559H724.883V251.26C723.514 251.26 722.735 252.04 722.735 254.371V261.104C722.735 261.955 723.176 262.144 723.514 262.144C723.955 262.144 724.254 261.813 724.435 261.553L725.064 262.183C724.805 262.592 723.805 264.034 721.775 264.034H721.783ZM718.823 256.001C717.383 256.332 714.943 257.332 714.943 259.923C714.943 261.474 716.234 262.104 717.013 262.104C717.792 262.104 718.603 261.435 718.823 261.183V256.001Z" fill="white"/>
<path d="M727.221 263.624V262.923C729.031 262.923 729.739 262.222 729.739 259.482V246.787C729.739 244.015 729.07 243.306 727.221 243.306V242.605H733.659V259.442C733.659 262.214 734.359 262.923 736.209 262.923V263.624H727.221Z" fill="white"/>
<path d="M745.197 264.034C741.647 264.034 740.648 261.293 740.317 260.592V252.008H737.618L738.176 250.567H740.396L740.435 248.677C740.475 246.716 739.695 246.126 738.586 246.126V245.425H746.023V246.126C744.803 246.126 744.103 246.716 744.134 248.677L744.174 250.567H748.943L748.384 252.008H744.244V259.631C744.244 261.293 745.315 262.262 746.425 262.262C747.534 262.262 748.313 261.451 748.754 261.002L749.604 261.852C748.904 262.553 747.715 264.034 745.205 264.034H745.197Z" fill="white"/>
<path d="M759.324 264.034C755.326 264.034 751.627 261.002 751.627 257.072C751.627 253.142 755.176 250.15 758.986 250.15C762.535 250.15 765.014 252.812 765.014 255.662V256.143H755.987C755.617 259.435 757.616 262.876 760.056 262.876C762.165 262.876 763.125 261.356 763.125 260.435C763.125 259.915 762.944 259.474 762.866 259.285L763.645 258.844L765.274 261.766C764.865 262.096 763.204 264.026 759.316 264.026L759.324 264.034ZM759.033 251.268C757.254 251.268 756.373 253.379 756.144 254.969H761.024C761.244 253.449 760.615 251.268 759.025 251.268H759.033ZM759.474 249.079H758.435L759.985 242.267H764.495L759.466 249.079H759.474Z" fill="white"/>
<path d="M777.489 254.749L774.829 252.749L774.27 253.229V259.45C774.27 262.222 774.97 262.931 776.82 262.931V263.632H767.832V262.931C769.642 262.931 770.35 262.23 770.35 259.49V254.749C770.35 251.977 769.681 251.268 767.832 251.268V250.567H774.27V252.087L776.788 249.977L779.228 251.496H780.778L777.489 254.757V254.749Z" fill="white"/>
<path d="M792.655 264.034C791.506 264.034 790.545 263.293 789.995 262.222C789.404 262.892 788.295 264.034 786.256 264.034C784.108 264.034 782.077 262.372 782.077 260.112C782.077 256.371 786.477 255.339 789.695 255.08V252.008H785.697C784.367 252.008 783.887 252.749 783.698 253.56H782.888L783.698 250.559H795.756V251.26C794.386 251.26 793.607 252.04 793.607 254.371V261.104C793.607 261.955 794.048 262.144 794.386 262.144C794.827 262.144 795.126 261.813 795.307 261.553L795.937 262.183C795.677 262.592 794.677 264.034 792.647 264.034H792.655ZM789.695 256.001C788.255 256.332 785.815 257.332 785.815 259.923C785.815 261.474 787.106 262.104 787.885 262.104C788.664 262.104 789.475 261.435 789.695 261.183V256.001Z" fill="white"/>
<path d="M807.97 264.034C805.751 264.034 804.531 262.994 804.051 262.592L803.831 263.632H797.692V262.931C799.502 262.931 800.242 262.23 800.242 259.49V246.795C800.242 244.023 799.541 243.314 797.692 243.314V242.613H806.719V243.314C804.869 243.314 804.169 244.015 804.169 246.756V251.748C804.5 251.489 805.837 250.158 808.128 250.158C810.898 250.158 813.747 252.859 813.747 256.82C813.747 260.781 811.268 264.034 807.978 264.034H807.97ZM806.491 251.788C805.2 251.788 804.421 252.709 804.161 253.008V261.561C804.421 261.86 805.2 262.711 806.381 262.711C808.12 262.711 809.521 260.561 809.521 256.977C809.521 253.906 808.151 251.796 806.491 251.796V251.788Z" fill="white"/>
<path d="M816.478 263.624V262.923C818.288 262.923 818.997 262.222 818.997 259.482V246.787C818.997 244.015 818.328 243.306 816.478 243.306V242.605H822.916V259.442C822.916 262.214 823.617 262.923 825.466 262.923V263.624H816.478Z" fill="white"/>
<path d="M835.894 264.034C831.896 264.034 828.197 261.002 828.197 257.072C828.197 253.142 831.747 250.15 835.556 250.15C839.105 250.15 841.584 252.812 841.584 255.662V256.143H832.557C832.187 259.435 834.186 262.876 836.626 262.876C838.735 262.876 839.696 261.356 839.696 260.435C839.696 259.915 839.507 259.474 839.436 259.285L840.215 258.844L841.844 261.766C841.435 262.096 839.774 264.026 835.886 264.026L835.894 264.034ZM835.603 251.268C833.824 251.268 832.943 253.379 832.715 254.969H837.594C837.814 253.449 837.185 251.268 835.595 251.268H835.603Z" fill="white"/>
<path d="M280.046 369.056C279.809 369.159 279.589 369.261 279.392 369.348C279.196 369.442 278.944 369.537 278.629 369.639C278.361 369.726 278.078 369.797 277.763 369.852C277.448 369.907 277.11 369.938 276.732 369.938C276.024 369.938 275.386 369.836 274.812 369.639C274.237 369.442 273.734 369.127 273.309 368.71C272.891 368.293 272.561 367.773 272.333 367.135C272.104 366.497 271.979 365.757 271.979 364.906C271.979 364.103 272.089 363.386 272.317 362.756C272.545 362.126 272.868 361.591 273.301 361.158C273.718 360.732 274.214 360.41 274.796 360.189C275.378 359.969 276.032 359.858 276.748 359.858C277.267 359.858 277.795 359.921 278.314 360.047C278.834 360.173 279.416 360.394 280.046 360.717V362.252H279.951C279.416 361.803 278.881 361.473 278.353 361.268C277.826 361.063 277.26 360.961 276.661 360.961C276.166 360.961 275.725 361.04 275.331 361.197C274.938 361.355 274.584 361.607 274.277 361.937C273.978 362.26 273.741 362.678 273.576 363.174C273.411 363.67 273.324 364.253 273.324 364.906C273.324 365.56 273.419 366.182 273.6 366.67C273.789 367.159 274.025 367.56 274.316 367.875C274.623 368.198 274.977 368.434 275.386 368.592C275.796 368.749 276.221 368.82 276.677 368.82C277.299 368.82 277.881 368.71 278.424 368.497C278.967 368.285 279.479 367.962 279.951 367.537H280.046V369.056Z" fill="white"/>
<path d="M296.51 359.591L294.739 363.245H293.834L294.913 359.591H296.51Z" fill="white"/>
<path d="M315.934 366.237H310.559C310.559 366.686 310.63 367.08 310.763 367.411C310.897 367.741 311.086 368.017 311.322 368.23C311.55 368.442 311.818 368.592 312.125 368.702C312.432 368.812 312.778 368.86 313.156 368.86C313.652 368.86 314.156 368.757 314.659 368.56C315.163 368.363 315.517 368.167 315.737 367.978H315.8V369.316C315.383 369.49 314.966 369.639 314.533 369.757C314.1 369.875 313.652 369.931 313.172 369.931C311.96 369.931 311.015 369.6 310.338 368.946C309.662 368.293 309.323 367.355 309.323 366.151C309.323 364.946 309.646 364.008 310.299 363.308C310.952 362.607 311.81 362.252 312.873 362.252C313.856 362.252 314.612 362.544 315.147 363.119C315.682 363.693 315.95 364.513 315.95 365.568V366.237H315.934ZM314.738 365.3C314.738 364.654 314.573 364.158 314.25 363.804C313.927 363.449 313.439 363.276 312.786 363.276C312.133 363.276 311.606 363.473 311.212 363.859C310.819 364.245 310.598 364.725 310.551 365.3H314.73H314.738Z" fill="white"/>
<path d="M335.24 367.663C335.24 368.332 334.965 368.875 334.414 369.301C333.863 369.726 333.107 369.938 332.155 369.938C331.612 369.938 331.116 369.875 330.667 369.742C330.219 369.616 329.841 369.474 329.534 369.316V367.938H329.597C329.983 368.23 330.416 368.466 330.888 368.631C331.36 368.804 331.817 368.891 332.257 368.891C332.8 368.891 333.217 368.804 333.524 368.631C333.831 368.458 333.981 368.182 333.981 367.804C333.981 367.513 333.902 367.3 333.729 367.151C333.556 367.001 333.249 366.875 332.777 366.773C332.604 366.733 332.375 366.686 332.092 366.639C331.809 366.584 331.557 366.529 331.329 366.466C330.691 366.3 330.235 366.048 329.967 365.717C329.699 365.387 329.566 364.985 329.566 364.505C329.566 364.205 329.629 363.922 329.754 363.654C329.88 363.386 330.069 363.15 330.321 362.937C330.565 362.733 330.88 362.567 331.25 362.449C331.62 362.331 332.045 362.268 332.517 362.268C332.95 362.268 333.391 362.323 333.839 362.426C334.288 362.536 334.658 362.662 334.957 362.811V364.127H334.894C334.579 363.898 334.201 363.701 333.753 363.544C333.304 363.386 332.863 363.308 332.43 363.308C331.998 363.308 331.604 363.394 331.289 363.567C330.982 363.741 330.825 363.993 330.825 364.339C330.825 364.638 330.919 364.867 331.108 365.016C331.289 365.166 331.588 365.292 331.998 365.387C332.226 365.442 332.478 365.489 332.761 365.544C333.044 365.599 333.28 365.646 333.461 365.686C334.036 365.82 334.469 366.04 334.784 366.355C335.091 366.678 335.248 367.103 335.248 367.639L335.24 367.663Z" fill="white"/>
<path d="M353.011 369.702C352.783 369.765 352.531 369.812 352.256 369.852C351.98 369.891 351.736 369.915 351.524 369.915C350.776 369.915 350.209 369.718 349.824 369.316C349.438 368.915 349.241 368.269 349.241 367.387V363.504H348.415V362.473H349.241V360.37H350.469V362.473H353.003V363.504H350.469V366.836C350.469 367.222 350.477 367.521 350.493 367.733C350.509 367.946 350.572 368.151 350.674 368.34C350.768 368.513 350.902 368.639 351.067 368.726C351.233 368.804 351.492 368.844 351.839 368.844C352.035 368.844 352.248 368.812 352.468 368.757C352.689 368.694 352.846 368.647 352.94 368.608H353.003V369.71L353.011 369.702Z" fill="white"/>
<path d="M384.902 369.765H383.674V359.591H384.902V369.765Z" fill="white"/>
<path d="M405.664 366.237H400.288C400.288 366.686 400.359 367.08 400.493 367.411C400.627 367.741 400.816 368.017 401.052 368.23C401.28 368.442 401.547 368.592 401.862 368.702C402.177 368.812 402.515 368.86 402.893 368.86C403.389 368.86 403.893 368.757 404.396 368.56C404.9 368.363 405.254 368.167 405.475 367.978H405.538V369.316C405.121 369.49 404.703 369.639 404.271 369.757C403.838 369.875 403.389 369.931 402.909 369.931C401.697 369.931 400.753 369.6 400.076 368.946C399.399 368.293 399.06 367.355 399.06 366.151C399.06 364.946 399.383 364.008 400.036 363.308C400.69 362.607 401.547 362.252 402.61 362.252C403.594 362.252 404.357 362.544 404.884 363.119C405.412 363.693 405.687 364.513 405.687 365.568V366.237H405.664ZM404.475 365.3C404.475 364.654 404.31 364.158 403.987 363.804C403.665 363.449 403.184 363.276 402.531 363.276C401.878 363.276 401.351 363.473 400.957 363.859C400.564 364.245 400.343 364.725 400.296 365.3H404.475Z" fill="white"/>
<path d="M447.337 369.765H446.109V365.607C446.109 365.292 446.093 364.993 446.07 364.701C446.038 364.41 445.983 364.174 445.889 364.001C445.786 363.812 445.645 363.67 445.456 363.575C445.267 363.481 444.999 363.434 444.645 363.434C444.291 363.434 443.953 363.52 443.614 363.693C443.268 363.867 442.93 364.087 442.583 364.347C442.599 364.449 442.607 364.56 442.615 364.694C442.623 364.827 442.631 364.961 442.631 365.087V369.765H441.403V365.607C441.403 365.284 441.387 364.977 441.363 364.686C441.34 364.394 441.277 364.166 441.182 363.993C441.08 363.804 440.938 363.662 440.75 363.567C440.561 363.473 440.293 363.426 439.939 363.426C439.585 363.426 439.27 363.504 438.931 363.67C438.593 363.835 438.255 364.048 437.924 364.308V369.757H436.696V362.457H437.924V363.268C438.31 362.953 438.687 362.701 439.073 362.52C439.451 362.339 439.86 362.252 440.293 362.252C440.789 362.252 441.214 362.355 441.56 362.567C441.906 362.78 442.166 363.063 442.331 363.434C442.827 363.016 443.284 362.717 443.693 362.528C444.102 362.339 444.543 362.252 445.007 362.252C445.81 362.252 446.4 362.496 446.778 362.985C447.156 363.473 447.353 364.15 447.353 365.024V369.765H447.337Z" fill="white"/>
<path d="M468.044 366.237H462.668C462.668 366.686 462.739 367.08 462.873 367.411C463.007 367.741 463.196 368.017 463.432 368.23C463.66 368.442 463.928 368.592 464.242 368.702C464.557 368.812 464.896 368.86 465.273 368.86C465.769 368.86 466.273 368.757 466.777 368.56C467.28 368.363 467.635 368.167 467.855 367.978H467.918V369.316C467.501 369.49 467.084 369.639 466.651 369.757C466.218 369.876 465.769 369.931 465.289 369.931C464.077 369.931 463.133 369.6 462.456 368.946C461.779 368.293 461.441 367.355 461.441 366.151C461.441 364.946 461.763 364.009 462.416 363.308C463.07 362.607 463.928 362.252 464.99 362.252C465.974 362.252 466.737 362.544 467.265 363.119C467.792 363.693 468.067 364.513 468.067 365.568V366.237H468.044ZM466.847 365.3C466.847 364.654 466.682 364.158 466.359 363.804C466.037 363.449 465.557 363.276 464.904 363.276C464.25 363.276 463.723 363.473 463.329 363.859C462.936 364.245 462.716 364.725 462.668 365.3H466.847ZM466.997 358.811L465.21 361.252H464.235L465.407 358.811H466.997Z" fill="white"/>
<path d="M485.925 369.702C485.697 369.765 485.445 369.812 485.17 369.852C484.894 369.891 484.658 369.915 484.438 369.915C483.69 369.915 483.123 369.718 482.738 369.316C482.352 368.915 482.155 368.269 482.155 367.387V363.504H481.329V362.473H482.155V360.37H483.383V362.473H485.917V363.504H483.383V366.836C483.383 367.222 483.391 367.521 483.407 367.733C483.422 367.946 483.485 368.151 483.588 368.34C483.682 368.513 483.816 368.639 483.981 368.726C484.146 368.812 484.406 368.844 484.752 368.844C484.949 368.844 485.162 368.812 485.382 368.757C485.602 368.694 485.76 368.647 485.854 368.608H485.917V369.71L485.925 369.702Z" fill="white"/>
<path d="M505.302 369.765H504.082V368.986C503.972 369.056 503.822 369.167 503.641 369.293C503.46 369.419 503.279 369.529 503.106 369.608C502.901 369.71 502.665 369.789 502.398 369.86C502.13 369.931 501.823 369.962 501.461 369.962C500.808 369.962 500.249 369.742 499.793 369.308C499.336 368.875 499.108 368.316 499.108 367.639C499.108 367.088 499.226 366.639 499.462 366.292C499.698 365.946 500.037 365.678 500.477 365.489C500.918 365.292 501.453 365.158 502.075 365.087C502.697 365.017 503.366 364.961 504.082 364.93V364.741C504.082 364.465 504.035 364.229 503.932 364.048C503.838 363.867 503.696 363.717 503.507 363.615C503.334 363.512 503.122 363.449 502.878 363.41C502.634 363.378 502.382 363.355 502.114 363.355C501.792 363.355 501.43 363.394 501.036 363.481C500.643 363.568 500.233 363.686 499.808 363.851H499.745V362.607C499.982 362.544 500.328 362.473 500.784 362.394C501.241 362.315 501.681 362.276 502.122 362.276C502.634 362.276 503.082 362.315 503.468 362.402C503.846 362.489 504.176 362.63 504.46 362.835C504.735 363.032 504.94 363.292 505.089 363.615C505.231 363.93 505.302 364.331 505.302 364.796V369.749V369.765ZM504.082 367.97V365.938C503.704 365.962 503.263 365.993 502.76 366.032C502.256 366.08 501.847 366.143 501.556 366.221C501.201 366.324 500.918 366.481 500.698 366.686C500.477 366.891 500.367 367.19 500.367 367.56C500.367 367.978 500.493 368.293 500.745 368.505C500.997 368.718 501.382 368.82 501.902 368.82C502.335 368.82 502.728 368.734 503.082 368.568C503.437 368.403 503.767 368.198 504.074 367.962L504.082 367.97Z" fill="white"/>
<path d="M521.137 369.765H519.909V359.591H521.137V369.765Z" fill="white"/>
<path d="M559.15 366.025C559.15 366.615 559.064 367.159 558.899 367.647C558.733 368.135 558.489 368.552 558.182 368.891C557.891 369.214 557.553 369.466 557.167 369.639C556.774 369.812 556.364 369.907 555.931 369.907C555.554 369.907 555.207 369.868 554.9 369.781C554.594 369.694 554.279 369.568 553.964 369.395V372.451H552.736V362.457H553.964V363.221C554.294 362.945 554.657 362.717 555.066 362.528C555.475 362.339 555.908 362.252 556.372 362.252C557.254 362.252 557.938 362.583 558.426 363.252C558.914 363.914 559.158 364.843 559.158 366.025H559.15ZM557.883 366.056C557.883 365.174 557.734 364.52 557.435 364.079C557.136 363.646 556.671 363.426 556.05 363.426C555.695 363.426 555.341 363.504 554.987 363.654C554.633 363.804 554.287 364.008 553.964 364.253V368.387C554.31 368.545 554.609 368.647 554.861 368.71C555.113 368.773 555.396 368.797 555.711 368.797C556.396 368.797 556.931 368.568 557.309 368.104C557.694 367.639 557.883 366.954 557.883 366.048V366.056Z" fill="white"/>
<path d="M578.968 369.765H577.748V368.986C577.638 369.056 577.488 369.167 577.307 369.293C577.126 369.419 576.945 369.529 576.772 369.608C576.567 369.71 576.331 369.789 576.064 369.86C575.796 369.931 575.489 369.962 575.127 369.962C574.474 369.962 573.915 369.742 573.459 369.308C573.002 368.875 572.774 368.316 572.774 367.639C572.774 367.088 572.892 366.639 573.128 366.292C573.364 365.946 573.703 365.678 574.143 365.489C574.584 365.292 575.119 365.158 575.741 365.087C576.363 365.017 577.032 364.961 577.748 364.93V364.741C577.748 364.465 577.701 364.229 577.598 364.048C577.504 363.867 577.362 363.717 577.173 363.615C577 363.512 576.788 363.449 576.544 363.41C576.3 363.378 576.048 363.355 575.78 363.355C575.458 363.355 575.096 363.394 574.702 363.481C574.309 363.568 573.899 363.686 573.474 363.851H573.411V362.607C573.648 362.544 573.994 362.473 574.45 362.394C574.907 362.315 575.348 362.276 575.788 362.276C576.3 362.276 576.748 362.315 577.134 362.402C577.512 362.489 577.842 362.63 578.126 362.835C578.401 363.032 578.606 363.292 578.755 363.615C578.897 363.93 578.968 364.331 578.968 364.796V369.749V369.765ZM577.748 367.97V365.938C577.37 365.962 576.93 365.993 576.426 366.032C575.922 366.08 575.513 366.143 575.222 366.221C574.867 366.324 574.584 366.481 574.364 366.686C574.143 366.891 574.033 367.19 574.033 367.56C574.033 367.978 574.159 368.293 574.411 368.505C574.663 368.718 575.048 368.82 575.568 368.82C576.001 368.82 576.394 368.734 576.748 368.568C577.103 368.403 577.433 368.198 577.74 367.962L577.748 367.97Z" fill="white"/>
<path d="M598.116 363.804H598.053C597.872 363.756 597.691 363.725 597.518 363.709C597.345 363.686 597.14 363.678 596.904 363.678C596.527 363.678 596.157 363.764 595.81 363.93C595.456 364.095 595.118 364.316 594.795 364.583V369.765H593.567V362.465H594.795V363.544C595.283 363.15 595.716 362.874 596.086 362.709C596.456 362.544 596.841 362.465 597.227 362.465C597.44 362.465 597.597 362.465 597.691 362.481C597.786 362.496 597.928 362.512 598.124 362.544V363.804H598.116Z" fill="white"/>
<path d="M615.423 360.78H615.36C615.226 360.74 615.045 360.701 614.833 360.662C614.613 360.622 614.424 360.599 614.258 360.599C613.731 360.599 613.345 360.717 613.109 360.945C612.873 361.173 612.755 361.599 612.755 362.213V362.465H614.967V363.497H612.794V369.765H611.567V363.497H610.74V362.465H611.567V362.221C611.567 361.355 611.779 360.685 612.212 360.221C612.645 359.756 613.267 359.528 614.077 359.528C614.353 359.528 614.597 359.543 614.817 359.567C615.038 359.591 615.242 359.622 615.423 359.661V360.788V360.78Z" fill="white"/>
<path d="M634.099 369.765H632.88V368.986C632.769 369.056 632.62 369.167 632.439 369.293C632.258 369.419 632.077 369.529 631.904 369.608C631.699 369.71 631.463 369.789 631.195 369.86C630.928 369.931 630.621 369.962 630.259 369.962C629.605 369.962 629.047 369.742 628.59 369.308C628.134 368.875 627.906 368.316 627.906 367.639C627.906 367.088 628.024 366.639 628.26 366.292C628.496 365.946 628.834 365.678 629.275 365.489C629.716 365.292 630.251 365.158 630.873 365.087C631.494 365.017 632.163 364.961 632.88 364.93V364.741C632.88 364.465 632.832 364.229 632.73 364.048C632.636 363.867 632.494 363.717 632.305 363.615C632.132 363.512 631.919 363.449 631.675 363.41C631.431 363.378 631.18 363.355 630.912 363.355C630.589 363.355 630.227 363.394 629.834 363.481C629.44 363.568 629.031 363.686 628.606 363.851H628.543V362.607C628.779 362.544 629.125 362.473 629.582 362.394C630.038 362.315 630.479 362.276 630.92 362.276C631.431 362.276 631.88 362.315 632.266 362.402C632.643 362.489 632.974 362.63 633.257 362.835C633.533 363.032 633.737 363.292 633.887 363.615C634.029 363.93 634.099 364.331 634.099 364.796V369.749V369.765ZM632.88 367.97V365.938C632.502 365.962 632.061 365.993 631.557 366.032C631.054 366.08 630.644 366.143 630.353 366.221C629.999 366.324 629.716 366.481 629.495 366.686C629.275 366.891 629.165 367.19 629.165 367.56C629.165 367.978 629.291 368.293 629.543 368.505C629.794 368.718 630.18 368.82 630.699 368.82C631.132 368.82 631.526 368.734 631.88 368.568C632.234 368.403 632.565 368.198 632.872 367.962L632.88 367.97Z" fill="white"/>
<path d="M650.013 361.244H648.628V359.969H650.013V361.244ZM649.935 369.765H648.707V362.465H649.935V369.765Z" fill="white"/>
<path d="M668.382 369.702C668.154 369.765 667.902 369.812 667.627 369.852C667.352 369.891 667.115 369.915 666.895 369.915C666.147 369.915 665.581 369.718 665.195 369.316C664.809 368.915 664.613 368.269 664.613 367.387V363.504H663.786V362.473H664.613V360.37H665.84V362.473H668.375V363.504H665.84V366.836C665.84 367.222 665.848 367.521 665.864 367.733C665.88 367.946 665.943 368.151 666.045 368.34C666.139 368.513 666.273 368.639 666.439 368.726C666.604 368.812 666.864 368.844 667.21 368.844C667.407 368.844 667.619 368.812 667.839 368.757C668.06 368.694 668.217 368.647 668.312 368.608H668.375V369.71L668.382 369.702Z" fill="white"/>
<path d="M96.2817 262.711V262.025C98.0525 262.025 98.7451 261.332 98.7451 258.655V254.016C98.7451 251.3 98.0918 250.606 96.2817 250.606V249.921H105.089V250.606C103.278 250.606 102.586 251.292 102.586 253.977V258.616C102.586 261.332 103.278 262.025 105.089 262.025V262.711H96.2817ZM100.665 247.417L98.0919 244.842L100.665 242.267L103.239 244.842L100.665 247.417Z" fill="white"/>
<path d="M120.782 263.112C119.263 263.112 117.886 261.884 117.886 259.631V253.355C117.886 252.237 117.091 251.323 115.894 251.323C114.919 251.323 113.722 252.481 113.502 252.701V259.34C113.502 261.332 114.297 262.025 115.532 262.025V262.711H107.198V262.025C108.977 262.025 109.661 261.332 109.661 258.655V254.016C109.661 251.3 109.008 250.606 107.198 250.606V249.921H113.502V251.552C113.825 251.229 115.532 249.52 117.846 249.52C120.42 249.52 121.475 251.733 121.758 252.276V260.254C121.758 261.088 122.159 261.269 122.521 261.269C122.883 261.269 123.206 260.939 123.387 260.687L124.001 261.301C123.749 261.703 122.773 263.112 120.774 263.112H120.782Z" fill="white"/>
<path d="M133.43 263.112C129.298 263.112 126.37 260.104 126.37 256.332C126.37 252.56 129.306 249.52 133.43 249.52C137.554 249.52 140.497 252.56 140.497 256.332C140.497 260.104 137.561 263.112 133.43 263.112ZM133.43 250.567C131.73 250.567 130.494 252.701 130.494 256.332C130.494 259.962 131.722 262.065 133.43 262.065C135.137 262.065 136.365 259.923 136.365 256.332C136.365 252.741 135.137 250.567 133.43 250.567Z" fill="white"/>
<path d="M147.029 259.883C145.833 261.301 146.526 262.025 147.392 262.025V262.711H141.78V262.025C143.299 262.025 144.243 261.332 145.802 259.561L147.761 257.237L144.897 253.032C143.881 251.544 143.197 250.607 141.78 250.607V249.921H149.422V250.607C148.588 250.607 148.265 251.292 148.918 252.386L150.225 254.379L151.571 252.749C152.798 251.37 152.145 250.607 151.279 250.607V249.921H156.93V250.607C155.411 250.607 154.215 251.622 152.877 253.032L150.886 255.387L153.751 259.592C154.978 261.474 155.852 262.018 157.229 262.018V262.703H149.147V262.018C149.981 262.018 150.343 261.364 149.69 260.238L148.383 258.245L147.045 259.876L147.029 259.883Z" fill="white"/>
<path d="M169.79 253.575L164.25 267.57C163.557 269.341 164.069 270.247 165.84 270.247V270.94H159.213V270.247C161.133 270.247 161.747 269.704 162.723 267.278L164.423 263.002L160.692 254.009C159.567 251.331 158.843 250.599 157.544 250.599V249.913H165.367V250.599C164.1 250.599 163.738 251.394 164.462 253.245L166.351 258.245L168.271 253.245C168.956 251.433 168.594 250.599 167.366 250.599V249.913H172.695V250.599C171.427 250.599 170.562 251.685 169.798 253.568L169.79 253.575Z" fill="white"/>
<path d="M182.95 262.711V261.041L179.723 263.104C178.888 262.813 173.568 260.962 173.568 256.001C173.568 252.3 176.244 249.512 179.439 249.512C181.431 249.512 182.737 250.307 182.957 250.488V246.212C182.957 243.495 182.265 242.802 180.494 242.802V242.109H189.301V242.802C187.522 242.802 186.798 243.487 186.798 246.173V258.608C186.798 261.325 187.491 262.018 189.301 262.018V262.703H182.957L182.95 262.711ZM182.95 251.512C182.698 251.292 181.934 250.677 180.809 250.677C179.18 250.677 177.692 252.78 177.692 255.97C177.692 259.742 179.935 261.08 180.376 261.372L182.95 259.954V251.504V251.512Z" fill="white"/>
<path d="M201.767 263.112C200.642 263.112 199.705 262.388 199.155 261.332C198.58 261.986 197.494 263.112 195.495 263.112C193.393 263.112 191.402 261.482 191.402 259.269C191.402 255.607 195.715 254.591 198.863 254.339V251.331H194.952C193.645 251.331 193.173 252.055 192.992 252.851H192.189L192.992 249.913H204.798V250.599C203.46 250.599 202.696 251.362 202.696 253.646V260.246C202.696 261.08 203.129 261.262 203.46 261.262C203.892 261.262 204.184 260.931 204.365 260.679L204.979 261.293C204.727 261.695 203.743 263.104 201.752 263.104L201.767 263.112ZM198.863 255.245C197.447 255.576 195.062 256.552 195.062 259.088C195.062 260.608 196.329 261.222 197.093 261.222C197.856 261.222 198.651 260.569 198.871 260.317V255.245H198.863Z" fill="white"/>
<path d="M216.776 263.112C214.604 263.112 213.408 262.096 212.936 261.695L212.723 262.711H206.71V262.025C208.489 262.025 209.205 261.332 209.205 258.655V246.22C209.205 243.503 208.52 242.81 206.71 242.81V242.117H215.548V242.81C213.738 242.81 213.046 243.495 213.046 246.181V251.071C213.376 250.819 214.675 249.512 216.926 249.512C219.641 249.512 222.435 252.158 222.435 256.033C222.435 259.907 220.011 263.104 216.784 263.104L216.776 263.112ZM215.328 251.111C214.061 251.111 213.298 252.016 213.046 252.308V260.679C213.298 260.97 214.061 261.805 215.218 261.805C216.918 261.805 218.295 259.702 218.295 256.182C218.295 253.174 216.957 251.111 215.328 251.111Z" fill="white"/>
<path d="M225.119 262.711V262.025C226.897 262.025 227.582 261.332 227.582 258.655V246.22C227.582 243.503 226.929 242.81 225.119 242.81V242.117H231.423V258.616C231.423 261.332 232.108 262.025 233.918 262.025V262.711H225.111H225.119Z" fill="white"/>
<path d="M244.141 263.112C240.23 263.112 236.609 260.143 236.609 256.292C236.609 252.441 240.088 249.512 243.819 249.512C247.297 249.512 249.721 252.118 249.721 254.914V255.387H240.883C240.521 258.615 242.473 261.986 244.865 261.986C246.927 261.986 247.872 260.498 247.872 259.592C247.872 259.088 247.691 258.647 247.62 258.466L248.383 258.033L249.973 260.899C249.572 261.222 247.943 263.112 244.141 263.112ZM243.858 250.606C242.119 250.606 241.253 252.67 241.032 254.229H245.818C246.038 252.741 245.416 250.606 243.858 250.606Z" fill="white"/>
</svg>
