<svg width="177" height="86" viewBox="0 0 177 86" fill="none" xmlns="http://www.w3.org/2000/svg">
<g clip-path="url(#clip0_273_232)">
<path d="M66.9603 29.0414V27.9682C67.4004 27.9682 67.7663 27.9011 68.0579 27.7643C68.3496 27.6274 68.5829 27.3806 68.7526 27.0237C68.9223 26.6669 69.0442 26.1813 69.1185 25.5668C69.1927 24.9524 69.2272 24.169 69.2272 23.2138V6.39104L62.9328 24.7968C62.7366 25.3763 62.6412 25.87 62.6412 26.2805C62.6412 26.691 62.7154 27.0318 62.8613 27.3028C63.0071 27.5765 63.2033 27.7804 63.4472 27.9172C63.6911 28.054 63.9483 28.1211 64.2161 28.1211V29.0414H57.7388V28.1211C58.0066 28.1211 58.2638 28.0621 58.5077 27.9413C58.7516 27.8233 58.9478 27.6355 59.0937 27.3779C59.2395 27.123 59.319 26.7903 59.3323 26.3798C59.3429 25.972 59.2527 25.4783 59.0565 24.8961L52.8709 6.89814V23.6672C52.8709 25.3388 53.0406 26.471 53.3826 27.0667C53.7246 27.6623 54.2602 27.9601 54.992 27.9601V29.0333H48.0746V27.9601C48.976 27.9601 49.7343 27.6355 50.3442 26.9889C50.954 26.3422 51.2589 25.0812 51.2589 23.2058V5.87858C51.2589 3.97092 51.0521 2.69111 50.6358 2.04449C50.2195 1.39787 49.5487 1.07322 48.6234 1.07322V0H55.0291L62.2037 20.9627L69.3385 0H76.0359V1.07322C75.5958 1.07322 75.206 1.14298 74.864 1.27713C74.522 1.41397 74.2409 1.66081 74.0209 2.01766C73.8008 2.3745 73.6364 2.86014 73.5277 3.47456C73.419 4.08898 73.3633 4.87243 73.3633 5.8276V23.1601C73.3633 24.1153 73.4482 24.9068 73.6205 25.5373C73.7902 26.1678 74.0235 26.6615 74.3152 27.0211C74.6068 27.3779 74.9568 27.6274 75.3572 27.7616C75.7602 27.8984 76.1817 27.9655 76.6192 27.9655V29.0387H66.9576L66.9603 29.0414Z" fill="#957B4D"/>
<path d="M101.895 20.7508C101.322 22.5699 100.521 24.1609 99.4979 25.5159C98.4745 26.8735 97.2416 27.9413 95.8019 28.7168C94.3622 29.4948 92.7767 29.8839 91.0427 29.8839C89.3087 29.8839 87.7311 29.4948 86.302 28.7168C84.8756 27.9387 83.648 26.8735 82.6246 25.5159C81.5985 24.1582 80.8004 22.5699 80.2278 20.7508C79.6551 18.9316 79.3687 16.9945 79.3687 14.9419C79.3687 12.8894 79.6551 10.9549 80.2278 9.13312C80.8004 7.31401 81.6012 5.72564 82.6246 4.36802C83.6507 3.01039 84.8756 1.94522 86.302 1.16713C87.7285 0.389043 89.3087 0 91.0427 0C92.7767 0 94.3595 0.389043 95.8019 1.16713C97.2416 1.94522 98.4745 3.01307 99.4979 4.36802C100.524 5.72564 101.322 7.31401 101.895 9.13312C102.467 10.9549 102.754 12.8894 102.754 14.9419C102.754 16.9945 102.467 18.9316 101.895 20.7508ZM97.0639 8.51334C96.5893 6.97326 95.9901 5.65857 95.2716 4.56656C94.5504 3.47456 93.7206 2.66427 92.782 2.13303C91.8434 1.60447 90.812 1.43812 89.6905 1.63666C88.569 1.83521 87.6039 2.3745 86.7978 3.24918C85.9918 4.12654 85.3528 5.21854 84.8756 6.52519C84.401 7.83184 84.0881 9.32094 83.9423 10.9925C83.7965 12.664 83.8204 14.4268 84.0166 16.2781C84.2128 18.0972 84.5468 19.7875 85.0241 21.341C85.4987 22.8972 86.0979 24.2199 86.8164 25.312C87.5349 26.404 88.3728 27.2142 89.3246 27.7455C90.2764 28.274 91.3131 28.4404 92.4347 28.2419C93.5562 28.0433 94.5213 27.5067 95.3273 26.6293C96.1333 25.752 96.767 24.66 97.231 23.3533C97.695 22.0467 97.9999 20.5495 98.1457 18.8619C98.2915 17.1742 98.2677 15.4195 98.0715 13.6004C97.8753 11.7464 97.5412 10.0507 97.0639 8.51334Z" fill="#957B4D"/>
<path d="M121.311 29.0414V27.9682C122.212 27.9682 122.933 27.6435 123.469 26.9969C124.004 26.3503 124.275 25.0893 124.275 23.2138L110.148 6.59763V23.1628C110.148 25.0732 110.416 26.3503 110.954 26.9969C111.49 27.6435 112.211 27.9682 113.113 27.9682V29.0414H105.501V27.9682C106.402 27.9682 107.123 27.6435 107.659 26.9969C108.194 26.3503 108.465 25.0893 108.465 23.2138V7.41328C108.465 4.99317 108.202 3.33236 107.677 2.42817C107.152 1.52666 106.426 1.07322 105.501 1.07322V0H111.283L124.275 15.339V5.87858C124.275 3.97092 124.007 2.69111 123.469 2.04449C122.931 1.39787 122.212 1.07322 121.311 1.07322V0H128.923V1.07322C128.483 1.07322 128.08 1.14298 127.714 1.27713C127.348 1.41397 127.038 1.66081 126.78 2.01766C126.523 2.3745 126.322 2.86014 126.176 3.47456C126.03 4.08898 125.956 4.87243 125.956 5.8276V23.1601C125.956 25.0705 126.224 26.3476 126.762 26.9942C127.297 27.6408 128.019 27.9655 128.92 27.9655V29.0387H121.308L121.311 29.0414Z" fill="#957B4D"/>
<path d="M23.2578 50.8949C22.6586 52.3035 21.8685 53.5189 20.8848 54.5438C19.9012 55.5688 18.7558 56.3576 17.4566 56.9049C16.1548 57.455 14.784 57.7286 13.3417 57.7286H10.282V67.5298C10.282 68.866 10.3881 69.9741 10.5975 70.8568C10.8096 71.7396 11.0986 72.4318 11.4672 72.9308C11.8357 73.4299 12.2838 73.7787 12.8114 73.9692C13.339 74.1597 13.9356 74.2536 14.6037 74.2536V75.7561H0V74.2536C1.30182 74.2536 2.33851 73.8001 3.11271 72.896C3.8869 71.9918 4.274 70.2263 4.274 67.6023V43.3528C4.274 40.6832 3.89486 38.8936 3.13922 37.9867C2.38358 37.0825 1.33629 36.6291 0.00265137 36.6291V35.1266H13.6625C16.8972 35.1266 19.4557 36.0817 21.3356 37.9867C23.2154 39.8944 24.1566 42.6364 24.1566 46.213C24.1566 47.9301 23.857 49.4917 23.2604 50.8976L23.2578 50.8949ZM16.2714 39.8434C15.0571 38.4616 13.5724 37.7694 11.8145 37.7694H10.2847V54.7934L13.2913 55.4373C13.7818 55.4373 14.3094 55.1878 14.8742 54.6861C15.4363 54.1843 15.9559 53.5055 16.4305 52.6469C16.9051 51.7884 17.3002 50.7983 17.6183 49.6768C17.9338 48.558 18.0929 47.3774 18.0929 46.1352C18.0929 43.3206 17.4858 41.2225 16.2741 39.8407L16.2714 39.8434Z" fill="#1D1D1B"/>
<path d="M42.2999 75.7534V74.2509C44.9725 74.2509 45.8156 72.3674 44.8319 68.6004L42.9336 61.1603H32.755L30.8566 68.6004C30.2945 70.7468 30.2839 72.2144 30.8301 73.0006C31.3736 73.7867 32.2273 74.2053 33.3886 74.2509V75.7534H23.051V74.2509C23.6846 74.2509 24.2626 74.157 24.7903 73.9665C25.3179 73.776 25.8004 73.4299 26.2406 72.9281C26.6807 72.4264 27.0916 71.7476 27.4787 70.889C27.8658 70.0304 28.2344 68.9331 28.587 67.5996L35.2313 42.0623C35.7219 40.058 35.7059 38.6521 35.1783 37.8418C34.6507 37.0315 33.8235 36.6264 32.6993 36.6264V35.1239H46.6746V36.6264C45.5478 36.6264 44.7232 37.0315 44.1956 37.8418C43.668 38.6548 43.6494 40.058 44.1426 42.0623L50.6835 67.5298C51.3861 70.2478 52.1868 72.0481 53.083 72.9308C53.9792 73.8136 55.0609 74.2536 56.3256 74.2536V75.7561H42.2972L42.2999 75.7534ZM37.8695 41.4881L33.5981 58.013H42.0904L37.8721 41.4881H37.8695Z" fill="#1D1D1B"/>
<path d="M81.6966 86V84.1192C82.9984 84.1192 84.0351 83.5531 84.8093 82.4181C85.5835 81.2859 85.9706 79.075 85.9706 75.7883L65.6134 46.6771V75.6997C65.6134 79.0455 66.0005 81.2832 66.7747 82.4181C67.5489 83.5531 68.5856 84.1192 69.8874 84.1192V86H58.916V84.1192C60.2178 84.1192 61.2545 83.5531 62.0287 82.4181C62.8029 81.2859 63.19 79.075 63.19 75.7883V48.1099C63.19 43.8706 62.8109 40.9595 62.0552 39.3765C61.2996 37.7962 60.2523 37.002 58.9187 37.002V35.1212H67.2519L85.9759 61.992V45.4215C85.9759 42.0784 85.5888 39.838 84.8146 38.7031C84.0404 37.5708 83.0037 37.002 81.7019 37.002V35.1212H92.6732V37.002C92.0395 37.002 91.4589 37.1228 90.9339 37.3589C90.4063 37.5977 89.9582 38.0296 89.5897 38.6575C89.2211 39.2853 88.9295 40.1358 88.72 41.2091C88.5106 42.285 88.4045 43.6587 88.4045 45.3302V75.6971C88.4045 79.0428 88.7916 81.2805 89.5658 82.4154C90.34 83.5504 91.3767 84.1165 92.6785 84.1165V85.9973H81.7072L81.6966 86Z" fill="#1D1D1B"/>
<path d="M98.204 75.7534V74.2509C99.5058 74.2509 100.542 73.7975 101.317 72.8933C102.091 71.9891 102.478 70.2236 102.478 67.5996V43.3501C102.478 40.6805 102.099 38.8909 101.343 37.984C100.588 37.0798 99.5403 36.6264 98.204 36.6264V35.1239H112.813V36.6264C112.145 36.6264 111.548 36.723 111.021 36.9108C110.493 37.1013 110.045 37.4474 109.676 37.9491C109.308 38.4509 109.016 39.1297 108.807 39.9883C108.595 40.8468 108.491 41.9442 108.491 43.2777V67.5271C108.491 68.8633 108.597 69.9714 108.807 70.8541C109.019 71.7369 109.308 72.4291 109.676 72.9281C110.045 73.4299 110.493 73.776 111.021 73.9665C111.548 74.157 112.145 74.2509 112.813 74.2509V75.7534H98.204Z" fill="#1D1D1B"/>
<path d="M140.501 75.7534H118.349V74.2509C119.651 74.2509 120.688 73.7975 121.462 72.8933C122.236 71.9891 122.623 70.2236 122.623 67.5996V43.3501C122.623 40.6805 122.244 38.8909 121.488 37.984C120.733 37.0798 119.685 36.6264 118.352 36.6264V35.1239H140.557L141.138 42.564H139.873C139.767 41.9925 139.626 41.4559 139.451 40.9542C139.274 40.4524 139.03 40.0124 138.714 39.6314C138.399 39.2504 137.985 38.9419 137.476 38.7004C136.964 38.4616 136.341 38.3436 135.604 38.3436H128.642V53.7228H132.492C135.13 53.7228 136.447 52.3169 136.447 49.5024H137.609V60.9483H136.447C136.447 59.6148 136.121 58.5765 135.472 57.836C134.819 57.0981 133.828 56.7278 132.492 56.7278H128.642V68.9599C128.642 71.2968 129.379 72.464 130.856 72.464H135.549C136.498 72.464 137.28 72.2842 137.895 71.9274C138.51 71.5705 139.011 71.1171 139.398 70.5671C139.785 70.0197 140.085 69.4348 140.294 68.815C140.507 68.1952 140.698 67.6237 140.875 67.0979H142.352L140.507 75.7534H140.501Z" fill="#1D1D1B"/>
<path d="M176.181 72.7859C175.847 73.4299 175.46 74.0255 175.019 74.5729C174.579 75.1202 174.078 75.5871 173.516 75.9681C172.954 76.349 172.355 76.5395 171.724 76.5395C170.175 76.5395 169.035 76.1451 168.296 75.359C167.558 74.5729 166.888 73.6311 166.291 72.5337L158.117 57.9406H157.009V67.5272C157.009 70.1995 157.316 71.9864 157.931 72.8933C158.546 73.8001 159.504 74.2509 160.805 74.2509V75.7534H146.83V74.2509C148.132 74.2509 149.169 73.7975 149.943 72.8933C150.717 71.9891 151.104 70.2236 151.104 67.5996V43.3501C151.104 40.6805 150.725 38.8909 149.969 37.984C149.214 37.0798 148.166 36.6264 146.833 36.6264V35.1239H159.965C161.582 35.1239 163.067 35.3519 164.422 35.8027C165.774 36.2561 166.935 36.9484 167.903 37.8767C168.871 38.8077 169.627 39.9641 170.17 41.3459C170.714 42.7304 170.987 44.3268 170.987 46.1378C170.987 47.7584 170.698 49.2019 170.117 50.4656C169.536 51.7293 168.876 52.8025 168.139 53.6853C167.402 54.568 166.681 55.2468 165.976 55.7244C165.273 56.202 164.798 56.5105 164.552 56.6554L172.357 70.1753C172.848 71.0339 173.413 71.4632 174.044 71.4632C174.431 71.4632 174.791 71.262 175.125 70.8541C175.46 70.449 175.749 70.0787 175.995 69.746L176.997 71.0339C176.785 71.5598 176.512 72.142 176.181 72.7859ZM164.631 42.8484C164.438 41.8476 164.112 40.9649 163.656 40.2002C163.2 39.4382 162.608 38.8426 161.89 38.4133C161.169 37.984 160.299 37.7694 159.278 37.7694H157.011V55.2951L159.649 55.8666C160.387 55.8666 161.073 55.6063 161.707 55.0805C162.341 54.5573 162.895 53.8543 163.369 52.9689C163.844 52.0862 164.22 51.0505 164.504 49.8565C164.785 48.6653 164.926 47.4016 164.926 46.0654C164.926 44.9197 164.828 43.8492 164.637 42.8457L164.631 42.8484Z" fill="#1D1D1B"/>
</g>
<defs>
<clipPath id="clip0_273_232">
<rect width="177" height="86" fill="white"/>
</clipPath>
</defs>
</svg>
