<svg width="18" height="22" viewBox="0 0 18 22" fill="none" xmlns="http://www.w3.org/2000/svg">
<g clip-path="url(#clip0_245_167)">
<path d="M3.69537 7.1621H14.3805C14.6812 7.1621 14.9414 7.37199 15.0042 7.66733L17.846 20.9785C17.9313 21.3758 17.6291 21.7506 17.2223 21.7506H0.853575C0.448245 21.7506 0.144621 21.3758 0.229875 20.9785L3.07167 7.66733C3.13449 7.37199 3.39474 7.1621 3.69537 7.1621Z" stroke="white" stroke-width="0.8" stroke-miterlimit="10"/>
<path d="M4.28916 7.1621C4.28168 7.02118 4.27869 6.87876 4.27869 6.73484C4.28018 3.15779 6.41003 0.256882 9.03795 0.256882C11.6659 0.256882 13.7972 3.15779 13.7972 6.73484C13.7972 6.87876 13.7942 7.02118 13.7867 7.1621" stroke="white" stroke-width="0.8" stroke-miterlimit="10"/>
<path d="M6.50716 8.72125H5.90141C5.79898 8.72125 5.71594 8.80448 5.71594 8.90715V10.6417C5.71594 10.7444 5.79898 10.8276 5.90141 10.8276H6.50716C6.60959 10.8276 6.69262 10.7444 6.69262 10.6417V8.90715C6.69262 8.80448 6.60959 8.72125 6.50716 8.72125Z" stroke="white" stroke-width="0.8" stroke-miterlimit="10"/>
<path d="M12.1744 8.72125H11.5686C11.4662 8.72125 11.3832 8.80448 11.3832 8.90715V10.6417C11.3832 10.7444 11.4662 10.8276 11.5686 10.8276H12.1744C12.2768 10.8276 12.3599 10.7444 12.3599 10.6417V8.90715C12.3599 8.80448 12.2768 8.72125 12.1744 8.72125Z" stroke="white" stroke-width="0.8" stroke-miterlimit="10"/>
</g>
<defs>
<clipPath id="clip0_245_167">
<rect width="17.9168" height="21.7561" fill="white" transform="translate(0.083252 0.121956)"/>
</clipPath>
</defs>
</svg>
